<svg width="184" height="188" viewBox="0 0 184 188" fill="none" xmlns="http://www.w3.org/2000/svg">
<path opacity="0.6" d="M182.54 134.657C183.532 135.252 183.532 136.045 182.54 136.64L95.4791 187.211C94.4875 187.806 92.901 187.806 91.9094 187.211L30.6296 151.91C29.638 151.315 29.638 150.522 30.6296 149.927L117.691 99.1581C118.682 98.5632 120.269 98.5632 121.26 99.1581L182.54 134.657Z" fill="#155501"/>
<path d="M2.07178 54.9334L90.3227 3.56941C90.521 3.37109 90.9177 3.37109 91.116 3.37109H90.521C90.3227 3.37109 89.9261 3.37109 89.7278 3.56941L1.47683 54.9334C0.485243 55.5284 0.0886098 56.9166 0.485243 58.3048L26.663 136.838C26.8614 137.632 27.6546 138.226 28.2496 138.226H28.8445C28.0513 138.226 27.4563 137.632 27.258 136.838L1.08019 58.3048C0.68356 56.9166 1.08019 55.5284 2.07178 54.9334Z" fill="url(#paint0_linear_130_1328)"/>
<path d="M90.3227 3.56934C91.3143 2.97439 92.5042 3.56934 92.9008 4.75924L119.079 83.2927C119.475 84.4826 119.079 86.0691 118.087 86.664L29.8361 138.028C28.8446 138.623 27.6547 138.028 27.258 136.838L1.08021 58.3047C0.683581 57.1148 1.08021 55.5283 2.0718 54.9334L90.3227 3.56934Z" fill="#101910"/>
<path d="M29.8359 137.631V140.209C29.8359 140.606 30.0343 141.002 30.6292 141.201L91.9091 176.501C92.9007 177.096 94.4872 177.096 95.4788 176.501L182.54 125.93C182.936 125.732 183.333 125.335 183.333 124.939V122.361L29.8359 137.631Z" fill="url(#paint1_linear_130_1328)"/>
<path d="M182.54 121.369C183.531 121.964 183.531 122.758 182.54 123.353L95.4786 174.122C94.487 174.717 92.9005 174.717 91.9089 174.122L30.6291 138.623C29.6375 138.028 29.6375 137.235 30.6291 136.64L117.69 86.069C118.682 85.4741 120.268 85.4741 121.26 86.069L182.54 121.369Z" fill="url(#paint2_linear_130_1328)"/>
<path opacity="0.2" d="M150.214 137.632L121.062 154.488C120.467 154.885 119.277 154.885 118.682 154.488L99.247 143.383C98.652 142.986 98.652 142.391 99.247 141.994L128.4 125.138C128.994 124.741 130.184 124.741 130.779 125.138L150.214 136.243C151.008 136.64 151.008 137.235 150.214 137.632Z" fill="#C2FBBE"/>
<path opacity="0.6" d="M99.2469 142.391L128.399 125.534C128.994 125.138 130.184 125.138 130.779 125.534L150.214 136.64C150.413 136.838 150.611 137.037 150.611 137.235C150.611 136.838 150.611 136.64 150.214 136.442L130.779 125.336C130.184 124.939 128.994 124.939 128.399 125.336L99.2469 142.193C98.8503 142.391 98.6519 142.788 98.8503 142.986C98.8503 142.59 99.0486 142.391 99.2469 142.391Z" fill="#A5F089"/>
<path opacity="0.2" d="M120.269 90.8288L38.9588 138.028C38.3638 138.425 37.1739 138.425 36.579 138.028L35.3891 137.433C34.7941 137.037 34.7941 136.442 35.3891 136.045L116.897 89.0439C117.492 88.6473 118.682 88.6473 119.277 89.0439L120.467 89.6389C121.062 89.8372 121.062 90.6305 120.269 90.8288Z" fill="#C2FBBE"/>
<path opacity="0.6" d="M35.389 136.243L116.897 89.242C117.492 88.8453 118.682 88.8453 119.277 89.242L120.467 89.8369C120.665 90.0352 120.863 90.2335 120.863 90.4319C120.863 90.0352 120.863 89.8369 120.467 89.6386L119.277 88.8453C118.682 88.4487 117.492 88.4487 116.897 88.8453L35.389 135.846C34.9924 136.045 34.794 136.441 34.9924 136.64C34.9924 136.64 35.1907 136.441 35.389 136.243Z" fill="#A5F089"/>
<path d="M65.9298 144.969C65.9298 144.771 65.9298 144.771 65.9298 144.771C65.9298 144.573 65.9298 144.374 66.1282 144.374L70.0945 142.193C70.4911 141.995 71.0861 141.995 71.4827 142.193L74.8541 144.176C75.0524 144.374 75.2507 144.573 75.0524 144.573C75.0524 144.573 75.0524 144.573 75.0524 144.771C75.0524 144.771 75.0524 144.771 75.0524 144.969C75.0524 145.168 75.0524 145.366 74.8541 145.366L70.8878 147.548C70.4911 147.746 69.8962 147.746 69.4995 147.548L66.1282 145.564C65.9298 145.366 65.9298 145.168 65.9298 144.969ZM58.1955 143.383L61.5669 145.366C61.9635 145.564 62.5585 145.564 62.9551 145.366L66.9214 143.185C67.1197 142.986 67.3181 142.788 67.1197 142.788C67.1197 142.788 67.1197 142.788 67.1197 142.59C67.1197 142.59 67.1197 142.59 67.1197 142.391C67.1197 142.193 67.1197 141.995 66.9214 141.995L63.55 140.011C63.1534 139.813 62.5585 139.813 62.1618 140.011L58.1955 142.193C57.9972 142.391 57.7989 142.59 57.9972 142.59C57.9972 142.59 57.9972 142.59 57.9972 142.788C57.9972 142.788 57.9972 142.788 57.9972 142.986C57.9972 142.986 57.9972 143.185 58.1955 143.383ZM67.3181 130.294C67.1197 130.492 66.9214 130.691 67.1197 130.691C67.1197 130.691 67.1197 130.691 67.1197 130.889C67.1197 130.889 67.1197 130.889 67.1197 131.087C67.1197 131.286 67.1197 131.484 67.3181 131.484L70.6894 133.467C71.0861 133.665 71.681 133.665 72.0777 133.467L76.044 131.286C76.2423 131.087 76.4406 130.889 76.2423 130.889C76.2423 130.889 76.2423 130.889 76.2423 130.691C76.2423 130.691 76.2423 130.691 76.2423 130.492C76.2423 130.294 76.2423 130.096 76.044 130.096C71.0861 127.121 72.6726 127.121 67.3181 130.294ZM121.855 117.998L125.821 115.817C126.02 115.619 126.218 115.42 126.02 115.42C126.02 115.42 126.02 115.42 126.02 115.222C126.02 115.222 126.02 115.222 126.02 115.024C126.02 114.825 126.02 114.627 125.821 114.627L122.45 112.644C122.053 112.445 121.459 112.445 121.062 112.644L117.096 114.825C116.897 115.024 116.699 115.222 116.897 115.222C116.897 115.222 116.897 115.222 116.897 115.42C116.897 115.42 116.897 115.42 116.897 115.619C116.897 115.817 116.897 116.015 117.096 116.015L120.467 117.998C120.864 118.197 121.459 118.197 121.855 117.998ZM77.2339 143.779L81.2002 141.598C81.3985 141.4 81.5969 141.201 81.3986 141.201C81.3986 141.201 81.3986 141.201 81.3986 141.003C81.3986 141.003 81.3986 141.003 81.3986 140.805C81.3986 140.606 81.3985 140.408 81.2002 140.408L77.8288 138.425C77.4322 138.227 76.8373 138.227 76.4406 138.425L72.4743 140.606C72.276 140.805 72.0777 141.003 72.276 141.003C72.276 141.003 72.276 141.003 72.276 141.201C72.276 141.201 72.276 141.201 72.276 141.4C72.276 141.598 72.276 141.796 72.4743 141.796L75.8457 143.779C76.2423 143.978 76.8373 143.978 77.2339 143.779ZM64.9383 131.682L60.9719 133.864C60.7736 134.062 60.5753 134.26 60.7736 134.26C60.7736 134.26 60.7736 134.26 60.7736 134.459C60.7736 134.459 60.7736 134.459 60.7736 134.657C60.7736 134.855 60.7736 135.054 60.9719 135.054L64.3433 137.037C64.7399 137.235 65.3349 137.235 65.7315 137.037L69.6979 134.855C69.8962 134.657 70.0945 134.459 69.8962 134.459C69.8962 134.459 69.8962 134.459 69.8962 134.26C69.8962 134.26 69.8962 134.26 69.8962 134.062C69.8962 133.864 69.8962 133.665 69.6979 133.665L66.3265 131.682C65.9298 131.484 65.3349 131.484 64.9383 131.682ZM109.163 125.336L113.129 123.155C113.328 122.956 113.328 122.758 113.328 122.56C113.328 122.56 113.328 122.56 113.328 122.361C113.328 122.361 113.328 122.361 113.328 122.163C113.328 121.965 113.328 121.766 113.129 121.766L109.758 119.783C109.361 119.585 108.766 119.585 108.37 119.783L104.403 121.965C104.205 122.163 104.007 122.361 104.205 122.361C104.205 122.361 104.205 122.361 104.205 122.56C104.205 122.56 104.205 122.56 104.205 122.758C104.205 122.956 104.205 123.155 104.403 123.155L107.775 125.138C108.171 125.534 108.766 125.534 109.163 125.336ZM77.6305 124.344L73.6642 126.526C73.4659 126.724 73.2676 126.923 73.4659 126.923C73.4659 126.923 73.4659 126.923 73.4659 127.121C73.4659 127.121 73.4659 127.121 73.4659 127.319C73.4659 127.518 73.4659 127.716 73.6642 127.716L77.0356 129.699C77.4322 129.897 78.0272 129.897 78.4238 129.699L82.3901 127.518C82.5885 127.319 82.7868 127.121 82.5885 127.121C82.5885 127.121 82.5885 127.121 82.5885 126.923C82.5885 126.923 82.5885 126.923 82.5885 126.724C82.5885 126.526 82.5885 126.328 82.3901 126.328L79.0188 124.344C78.6221 124.146 78.0272 124.146 77.6305 124.344ZM102.618 129.104L106.585 126.923C106.783 126.724 106.981 126.526 106.783 126.526C106.783 126.526 106.783 126.526 106.783 126.328C106.783 126.328 106.783 126.328 106.783 126.129C106.783 125.931 106.783 125.733 106.585 125.733L103.213 123.75C102.817 123.551 102.222 123.551 101.825 123.75L97.8588 125.931C97.6605 126.129 97.4622 126.328 97.6605 126.328C97.6605 126.328 97.6605 126.328 97.6605 126.526C97.6605 126.526 97.6605 126.526 97.6605 126.724C97.6605 126.923 97.6605 127.121 97.8588 127.121L101.23 129.104C101.627 129.302 102.42 129.302 102.618 129.104ZM83.58 140.011L87.5464 137.83C87.7447 137.632 87.943 137.433 87.7447 137.433C87.7447 137.433 87.7447 137.433 87.7447 137.235C87.7447 137.235 87.7447 137.235 87.7447 137.037C87.7447 136.838 87.7447 136.64 87.5464 136.64L84.175 134.657C83.7784 134.459 83.1834 134.459 82.7868 134.657L78.8204 136.838C78.6221 137.037 78.4238 137.235 78.6221 137.235C78.6221 137.235 78.6221 137.235 78.6221 137.433C78.6221 137.433 78.6221 137.433 78.6221 137.632C78.6221 137.83 78.6221 138.028 78.8204 138.028L82.1918 140.011C82.5885 140.21 83.1834 140.21 83.58 140.011ZM115.509 121.766L119.475 119.585C119.674 119.387 119.872 119.188 119.674 119.188C119.674 119.188 119.674 119.188 119.674 118.99C119.674 118.99 119.674 118.99 119.674 118.792C119.674 118.593 119.674 118.395 119.475 118.395L116.104 116.412C115.707 116.213 115.112 116.213 114.716 116.412L110.749 118.593C110.551 118.792 110.353 118.99 110.551 118.99C110.551 118.99 110.551 118.99 110.551 119.188C110.551 119.188 110.551 119.188 110.551 119.387C110.551 119.585 110.551 119.783 110.749 119.783L114.121 121.766C114.517 121.965 115.112 121.965 115.509 121.766ZM89.9262 136.442L93.8925 134.26C94.0908 134.062 94.2891 133.864 94.0908 133.864C94.0908 133.864 94.0908 133.864 94.0908 133.665C94.0908 133.665 94.0908 133.665 94.0908 133.467C94.0908 133.269 94.0908 133.07 93.8925 133.07L90.5211 131.087C90.1245 130.889 89.5295 130.889 89.1329 131.087L85.1666 133.269C84.9683 133.467 84.7699 133.665 84.9683 133.665C84.9683 133.665 84.9683 133.665 84.9683 133.864C84.9683 133.864 84.9683 133.864 84.9683 134.062C84.9683 134.26 84.9683 134.459 85.1666 134.459L88.538 136.442C88.9346 136.64 89.5295 136.64 89.9262 136.442ZM96.2723 132.674L100.239 130.492C100.437 130.294 100.635 130.096 100.437 130.096C100.437 130.096 100.437 130.096 100.437 129.897C100.437 129.897 100.437 129.897 100.437 129.699C100.437 129.501 100.437 129.302 100.239 129.302L96.8673 127.319C96.4706 127.121 95.8757 127.121 95.479 127.319L91.5127 129.501C91.3144 129.699 91.1161 129.897 91.3144 129.897C91.3144 129.897 91.3144 129.897 91.3144 130.096C91.3144 130.096 91.3144 130.096 91.3144 130.294C91.3144 130.492 91.3144 130.691 91.5127 130.691L94.8841 132.674C95.2807 132.872 95.8757 132.872 96.2723 132.674ZM58.5921 135.252L54.6258 137.433C54.4275 137.632 54.2292 137.83 54.4275 137.83C54.4275 137.83 54.4275 137.83 54.4275 138.028C54.4275 138.028 54.4275 138.028 54.4275 138.227C54.4275 138.425 54.4275 138.623 54.6258 138.623L57.9972 140.606C58.3938 140.805 58.9888 140.805 59.3854 140.606L63.3517 138.425C63.55 138.227 63.7484 138.028 63.55 138.028C63.55 138.028 63.55 138.028 63.55 137.83C63.55 137.83 63.55 137.83 63.55 137.632C63.55 137.433 63.55 137.235 63.3517 137.235L59.9803 135.252C59.5837 135.054 58.9888 135.054 58.5921 135.252ZM81.9935 134.26L85.9598 132.079C86.1582 131.88 86.3565 131.682 86.1581 131.682C86.1581 131.682 86.1581 131.682 86.1581 131.484C86.1581 131.484 86.1581 131.484 86.1581 131.286C86.1581 131.087 86.1582 130.889 85.9598 130.889L82.5885 128.906C82.1918 128.707 81.5969 128.707 81.2002 128.906L77.2339 131.087C77.0356 131.286 76.8373 131.484 77.0356 131.484C77.0356 131.484 77.0356 131.484 77.0356 131.682C77.0356 131.682 77.0356 131.682 77.0356 131.88C77.0356 132.079 77.0356 132.277 77.2339 132.277L80.6053 134.26C81.0019 134.459 81.5969 134.459 81.9935 134.26ZM101.032 123.155L104.998 120.973C105.197 120.775 105.395 120.576 105.197 120.576C105.197 120.576 105.197 120.576 105.197 120.378C105.197 120.378 105.197 120.378 105.197 120.18C105.197 119.981 105.197 119.783 104.998 119.783L101.627 117.8C101.23 117.602 100.635 117.602 100.239 117.8L96.2723 119.981C96.074 120.18 95.8757 120.378 96.074 120.378C96.074 120.378 96.074 120.378 96.074 120.576C96.074 120.576 96.074 120.576 96.074 120.775C96.074 120.973 96.074 121.171 96.2723 121.171L99.6437 123.155C100.04 123.551 100.635 123.551 101.032 123.155ZM94.6858 126.923L98.6521 124.741C98.8504 124.543 99.0487 124.344 98.8504 124.344C98.8504 124.344 98.8504 124.344 98.8504 124.146C98.8504 124.146 98.8504 124.146 98.8504 123.948C98.8504 123.749 98.8504 123.551 98.6521 123.551L95.2807 121.568C94.8841 121.37 94.2891 121.37 93.8925 121.568L89.9262 123.75C89.7279 123.948 89.5295 124.146 89.7279 124.146C89.7279 124.146 89.7279 124.146 89.7279 124.344C89.7279 124.344 89.7279 124.344 89.7279 124.543C89.7279 124.741 89.7279 124.939 89.9262 124.939L93.2976 126.923C93.6942 127.121 94.2891 127.121 94.6858 126.923ZM88.3396 130.492L92.306 128.311C92.5043 128.112 92.7026 127.914 92.5043 127.914C92.5043 127.914 92.5043 127.914 92.5043 127.716C92.5043 127.716 92.5043 127.716 92.5043 127.518C92.5043 127.319 92.5043 127.121 92.306 127.121L88.9346 125.138C88.538 124.939 87.943 124.939 87.5464 125.138L83.58 127.319C83.3817 127.518 83.1834 127.716 83.3817 127.716C83.3817 127.716 83.3817 127.716 83.3817 127.914C83.3817 127.914 83.3817 127.914 83.3817 128.112C83.3817 128.311 83.3817 128.509 83.58 128.509L86.9514 130.492C87.3481 130.889 87.943 130.889 88.3396 130.492ZM135.936 104.314C135.936 104.513 135.936 104.513 135.936 104.314C135.936 104.513 135.936 104.513 135.936 104.513C135.936 104.711 135.936 104.909 136.134 104.909L139.505 106.893C139.902 107.091 140.497 107.091 140.894 106.893L144.86 104.711C145.058 104.513 145.257 104.314 145.058 104.314C145.058 104.314 145.058 104.314 145.058 104.116C145.058 104.116 145.058 104.116 145.058 103.918C145.058 103.72 145.058 103.521 144.86 103.521L141.489 101.538C141.092 101.34 140.497 101.34 140.1 101.538L136.134 103.72C135.936 104.116 135.936 104.116 135.936 104.314ZM75.6474 138.028L79.6137 135.847C79.812 135.648 80.0103 135.45 79.812 135.45C79.812 135.45 79.812 135.45 79.812 135.252C79.812 135.252 79.812 135.252 79.812 135.054C79.812 134.855 79.812 134.657 79.6137 134.657L76.2423 132.674C75.8457 132.475 75.2507 132.475 74.8541 132.674L70.8878 134.855C70.6894 135.054 70.4911 135.252 70.6894 135.252C70.6894 135.252 70.6894 135.252 70.6894 135.45C70.6894 135.45 70.6894 135.45 70.6894 135.649C70.6894 135.847 70.6894 136.045 70.8878 136.045L74.2591 138.028C74.6558 138.227 75.2507 138.227 75.6474 138.028ZM69.8962 136.243C69.4995 136.045 68.9046 136.045 68.508 136.243L64.5416 138.425C64.3433 138.623 64.145 138.822 64.3433 138.822C64.3433 138.822 64.3433 138.822 64.3433 139.02C64.3433 139.02 64.3433 139.02 64.3433 139.218C64.3433 139.417 64.3433 139.615 64.5416 139.615L67.913 141.598C68.3096 141.796 68.9046 141.796 69.3012 141.598L73.2676 139.417C73.4659 139.218 73.6642 139.02 73.4659 139.02C73.4659 139.02 73.4659 139.02 73.4659 138.822C73.4659 138.822 73.4659 138.822 73.4659 138.623C73.4659 138.425 73.4659 138.227 73.2676 138.227L69.8962 136.243ZM90.3228 117.007L86.3565 119.188C86.1582 119.387 85.9598 119.585 86.1581 119.585C86.1581 119.585 86.1581 119.585 86.1581 119.783C86.1581 119.783 86.1581 119.783 86.1581 119.981C86.1581 120.18 86.1582 120.378 86.3565 120.378L89.7279 122.361C90.1245 122.56 90.7194 122.56 91.1161 122.361L95.0824 120.18C95.2807 119.981 95.479 119.783 95.2807 119.783C95.2807 119.783 95.2807 119.783 95.2807 119.585C95.2807 119.585 95.2807 119.585 95.2807 119.387C95.2807 119.188 95.2807 118.99 95.0824 118.99L91.711 117.007C91.3144 116.808 90.7194 116.808 90.3228 117.007ZM96.6689 113.239L92.7026 115.42C92.5043 115.619 92.306 115.817 92.5043 115.817C92.5043 115.817 92.5043 115.817 92.5043 116.015C92.5043 116.015 92.5043 116.015 92.5043 116.213C92.5043 116.412 92.5043 116.61 92.7026 116.61L96.074 118.593C96.4706 118.792 97.0656 118.792 97.4622 118.593L101.429 116.412C101.627 116.213 101.825 116.015 101.627 116.015C101.627 116.015 101.627 116.015 101.627 115.817C101.627 115.817 101.627 115.817 101.627 115.619C101.627 115.42 101.627 115.222 101.429 115.222L98.0572 113.239C97.6605 113.04 97.0656 113.04 96.6689 113.239ZM107.378 119.585L111.344 117.403C111.543 117.205 111.741 117.007 111.543 117.007C111.543 117.007 111.543 117.007 111.543 116.808C111.543 116.808 111.543 116.808 111.543 116.61C111.543 116.412 111.543 116.213 111.344 116.213L107.973 114.23C107.576 114.032 106.981 114.032 106.585 114.23L102.618 116.412C102.42 116.61 102.222 116.808 102.42 116.808C102.42 116.808 102.42 116.808 102.42 117.007C102.42 117.007 102.42 117.007 102.42 117.205C102.42 117.403 102.42 117.602 102.618 117.602L105.99 119.585C106.386 119.783 107.18 119.783 107.378 119.585ZM103.213 109.669L99.2471 111.85C99.0487 112.049 98.8504 112.247 99.0487 112.247C99.0487 112.247 99.0487 112.247 99.0487 112.445C99.0487 112.445 99.0487 112.445 99.0487 112.644C99.0487 112.842 99.0487 113.04 99.2471 113.04L102.618 115.024C103.015 115.222 103.61 115.222 104.007 115.024L107.973 112.842C108.171 112.644 108.37 112.445 108.171 112.445C108.171 112.445 108.171 112.445 108.171 112.247C108.171 112.247 108.171 112.247 108.171 112.049C108.171 111.85 108.171 111.652 107.973 111.652L104.602 109.669C104.205 109.471 103.412 109.471 103.213 109.669ZM83.9767 120.576L80.0103 122.758C79.812 122.956 79.6137 123.155 79.812 123.155C79.812 123.155 79.812 123.155 79.812 123.353C79.812 123.353 79.812 123.353 79.812 123.551C79.812 123.749 79.812 123.948 80.0103 123.948C83.1834 125.733 83.7783 126.328 84.7699 125.931L88.7363 123.75C88.9346 123.551 89.1329 123.353 88.9346 123.353C88.9346 123.353 88.9346 123.353 88.9346 123.155C88.9346 123.155 88.9346 123.155 88.9346 122.956C88.9346 122.758 88.9346 122.56 88.7363 122.56L85.3649 120.576C84.9683 120.378 84.3733 120.378 83.9767 120.576ZM113.922 115.817L119.872 112.445C120.07 112.247 120.269 112.049 120.07 112.049C120.07 112.049 120.07 112.049 120.07 111.85C120.07 111.85 120.07 111.85 120.07 111.652C120.07 111.454 120.07 111.256 119.872 111.256L116.501 109.272C116.104 109.074 115.509 109.074 115.112 109.272L109.163 112.644C108.965 112.842 108.766 113.04 108.965 113.04C108.965 113.04 108.965 113.04 108.965 113.239C108.965 113.239 108.965 113.239 108.965 113.437C108.965 113.635 108.965 113.834 109.163 113.834L112.534 115.817C112.733 116.015 113.526 116.015 113.922 115.817ZM114.121 107.884L110.749 105.901C110.353 105.703 109.758 105.703 109.361 105.901L105.395 108.082C105.197 108.281 104.998 108.479 105.197 108.479C105.197 108.479 105.197 108.479 105.197 108.677C105.197 108.677 105.197 108.677 105.197 108.876C105.197 109.074 105.197 109.272 105.395 109.272L108.766 111.256C109.163 111.454 109.758 111.454 110.154 111.256L114.121 109.074C114.319 108.876 114.517 108.677 114.319 108.677C114.319 108.677 114.319 108.677 114.319 108.479C114.319 108.479 114.319 108.479 114.319 108.281C114.517 108.082 114.319 108.082 114.121 107.884ZM91.1161 111.057L94.4875 113.04C94.8841 113.239 95.479 113.239 95.8757 113.04L99.842 110.859C100.04 110.661 100.239 110.462 100.04 110.462C100.04 110.462 100.04 110.462 100.04 110.264C100.04 110.264 100.04 110.264 100.04 110.066C100.04 109.867 100.04 109.669 99.842 109.669L96.4706 107.686C96.074 107.488 95.479 107.488 95.0824 107.686L91.1161 109.867C90.9178 110.066 90.7194 110.264 90.9178 110.264C90.9178 110.264 90.9178 110.264 90.9178 110.462C90.9178 110.462 90.9178 110.462 90.9178 110.661C90.9178 110.661 90.9178 110.859 91.1161 111.057ZM72.0777 152.109L68.7063 150.126C68.3096 149.927 67.7147 149.927 67.3181 150.126L63.3517 152.307C63.1534 152.505 62.9551 152.704 63.1534 152.704C63.1534 152.704 63.1534 152.704 63.1534 152.902C63.1534 152.902 63.1534 152.902 63.1534 153.1C63.1534 153.299 63.1534 153.497 63.3517 153.497L66.7231 155.48C67.1197 155.678 67.7147 155.678 68.1113 155.48L72.0777 153.299C72.276 153.1 72.4743 152.902 72.276 152.902C72.276 152.902 72.276 152.902 72.276 152.704C72.276 152.704 72.276 152.704 72.276 152.505C72.276 152.505 72.276 152.307 72.0777 152.109ZM78.4238 148.539L75.0524 146.556C74.6558 146.358 74.0608 146.358 73.6642 146.556L69.6979 148.737C69.4995 148.936 69.3012 149.134 69.4995 149.134C69.4995 149.134 69.4995 149.134 69.4995 149.332C69.4995 149.332 69.4995 149.332 69.4995 149.531C69.4995 149.729 69.4995 149.927 69.6979 149.927L73.0693 151.91C73.4659 152.109 74.0608 152.109 74.4575 151.91L78.4238 149.729C78.6221 149.531 78.8204 149.332 78.6221 149.332C78.6221 149.332 78.6221 149.332 78.6221 149.134C78.6221 149.134 78.6221 149.134 78.6221 148.936C78.6221 148.737 78.6221 148.539 78.4238 148.539ZM68.7063 148.341C68.7063 148.142 68.7063 148.142 68.7063 148.142C68.7063 147.944 68.7063 147.746 68.508 147.746L65.1366 145.763C64.7399 145.564 64.145 145.564 63.7484 145.763L57.7989 149.134C57.6005 149.332 57.4022 149.531 57.6005 149.531C57.6005 149.531 57.6005 149.531 57.6005 149.729C57.6005 149.729 57.6005 149.729 57.6005 149.927C57.6005 150.126 57.6005 150.324 57.7989 150.324L61.1702 152.307C61.5669 152.505 62.1618 152.505 62.5585 152.307L68.508 148.936C68.7063 148.737 68.7063 148.539 68.7063 148.341ZM84.7699 144.771L81.3986 142.788C81.0019 142.59 80.407 142.59 80.0103 142.788L76.044 144.969C75.8457 145.168 75.6474 145.366 75.8457 145.366C75.8457 145.366 75.8457 145.366 75.8457 145.564C75.8457 145.564 75.8457 145.564 75.8457 145.763C75.8457 145.961 75.8457 146.159 76.044 146.159L79.4154 148.142C79.812 148.341 80.407 148.341 80.8036 148.142L84.7699 145.961C84.9683 145.763 85.1666 145.564 84.9683 145.564C84.9683 145.564 84.9683 145.564 84.9683 145.366C84.9683 145.366 84.9683 145.366 84.9683 145.168C84.9683 145.168 84.9683 144.969 84.7699 144.771ZM49.2712 139.615C49.2712 139.417 49.2712 139.417 49.2712 139.615C49.2712 139.417 49.2712 139.417 49.2712 139.417C49.2712 139.218 49.2712 139.02 49.0729 139.02L45.7015 137.037C45.3049 136.838 44.71 136.838 44.3133 137.037L40.347 139.218C40.1487 139.417 39.9504 139.615 40.1487 139.615C40.1487 139.615 40.1487 139.615 40.1487 139.813C40.1487 139.813 40.1487 139.813 40.1487 140.011C40.1487 140.21 40.1487 140.408 40.347 140.408L43.7184 142.391C44.115 142.59 44.71 142.59 45.1066 142.391L49.0729 140.21C49.0729 139.813 49.2712 139.615 49.2712 139.615ZM60.7736 146.159C60.7736 145.961 60.7736 145.961 60.7736 145.961C60.7736 145.763 60.7736 145.564 60.5753 145.564L57.2039 143.581C56.8073 143.383 56.2123 143.383 55.8157 143.581L51.8494 145.763C51.651 145.961 51.4527 146.159 51.651 146.159C51.651 146.159 51.651 146.159 51.651 146.358C51.651 146.358 51.651 146.358 51.651 146.556C51.651 146.754 51.651 146.953 51.8494 146.953L55.2207 148.936C55.6174 149.134 56.2123 149.134 56.609 148.936L60.5753 146.754C60.7736 146.556 60.7736 146.358 60.7736 146.159ZM57.2039 141.598C57.2039 141.4 57.2039 141.4 57.2039 141.4C57.2039 141.201 57.2039 141.003 57.0056 141.003L53.6342 139.02C53.2376 138.822 52.6426 138.822 52.246 139.02L46.2965 142.391C45.8999 142.59 45.8999 142.788 45.8999 142.986C45.8999 142.986 45.8999 142.986 45.8999 143.185C45.8999 143.185 45.8999 143.185 45.8999 143.383C45.8999 143.581 45.8999 143.779 46.0982 143.779L49.4696 145.763C49.8662 145.961 50.4611 145.961 50.8578 145.763L56.8073 142.391C57.2039 141.995 57.2039 141.796 57.2039 141.598ZM150.809 106.893L147.438 104.909C147.041 104.711 146.446 104.711 146.05 104.909L142.083 107.091C141.885 107.289 141.687 107.488 141.885 107.488C141.885 107.488 141.885 107.488 141.885 107.686C141.885 107.686 141.885 107.686 141.885 107.884C141.885 108.082 141.885 108.281 142.083 108.281L145.455 110.264C145.851 110.462 146.446 110.462 146.843 110.264L150.809 108.082C151.008 107.884 151.206 107.686 151.008 107.686C151.008 107.686 151.008 107.686 151.008 107.488C151.008 107.488 151.008 107.488 151.008 107.289C151.008 107.289 151.008 107.091 150.809 106.893ZM137.919 114.23L134.547 112.247C134.151 112.049 133.556 112.049 133.159 112.247L129.193 114.429C128.995 114.627 128.796 114.825 128.995 114.825C128.995 114.825 128.995 114.825 128.995 115.024C128.995 115.024 128.995 115.024 128.995 115.222C128.995 115.42 128.995 115.619 129.193 115.619L132.564 117.602C132.961 117.8 133.556 117.8 133.952 117.602L137.919 115.42C138.117 115.222 138.315 115.024 138.117 115.024C138.117 115.024 138.117 115.024 138.117 114.825C138.117 114.825 138.117 114.825 138.117 114.627C138.315 114.627 138.117 114.429 137.919 114.23ZM144.265 110.661L140.894 108.677C140.497 108.479 139.902 108.479 139.505 108.677L135.539 110.859C135.341 111.057 135.142 111.256 135.341 111.256C135.341 111.256 135.341 111.256 135.341 111.454C135.341 111.454 135.341 111.454 135.341 111.652C135.341 111.85 135.341 112.049 135.539 112.049L138.91 114.032C139.307 114.23 139.902 114.23 140.299 114.032L144.265 111.85C144.463 111.652 144.662 111.454 144.463 111.454C144.463 111.454 144.463 111.454 144.463 111.256C144.463 111.256 144.463 111.256 144.463 111.057C144.662 110.859 144.662 110.661 144.265 110.661ZM91.1161 141.201L87.7447 139.218C87.348 139.02 86.7531 139.02 86.3565 139.218L82.3901 141.4C82.1918 141.598 81.9935 141.796 82.1918 141.796C82.1918 141.796 82.1918 141.796 82.1918 141.995C82.1918 141.995 82.1918 141.995 82.1918 142.193C82.1918 142.391 82.1918 142.59 82.3901 142.59L85.7615 144.573C86.1581 144.771 86.7531 144.771 87.1497 144.573L91.1161 142.391C91.3144 142.193 91.5127 141.995 91.3144 141.995C91.3144 141.995 91.3144 141.995 91.3144 141.796C91.3144 141.796 91.3144 141.796 91.3144 141.598C91.5127 141.4 91.3144 141.201 91.1161 141.201ZM46.6931 136.64L50.0645 138.623C50.4611 138.822 51.0561 138.822 51.4527 138.623L55.4191 136.442C55.6174 136.243 55.8157 136.045 55.6174 136.045C55.6174 136.045 55.6174 136.045 55.6174 135.847C55.6174 135.847 55.6174 135.847 55.6174 135.649C55.6174 135.45 55.6174 135.252 55.4191 135.252L52.0477 133.269C51.651 133.07 51.0561 133.07 50.6595 133.269L46.6931 135.45C46.4948 135.649 46.2965 135.847 46.4948 135.847C46.4948 135.847 46.4948 135.847 46.4948 136.045C46.4948 136.045 46.4948 136.045 46.4948 136.243C46.2965 136.442 46.4948 136.64 46.6931 136.64ZM123.045 122.758L119.674 120.775C119.277 120.576 118.682 120.576 118.285 120.775L88.7363 137.83C88.5379 138.028 88.3396 138.227 88.538 138.227C88.538 138.227 88.538 138.227 88.538 138.425C88.538 138.425 88.538 138.425 88.538 138.623C88.538 138.822 88.5379 139.02 88.7363 139.02L92.1077 141.003C92.5043 141.201 93.0992 141.201 93.4959 141.003L123.045 123.948C123.243 123.749 123.442 123.551 123.243 123.551C123.243 123.551 123.243 123.551 123.243 123.353C123.243 123.353 123.243 123.353 123.243 123.155C123.442 122.956 123.243 122.956 123.045 122.758ZM131.374 117.998L128.003 116.015C127.606 115.817 127.011 115.817 126.615 116.015L120.665 119.387C120.467 119.585 120.269 119.783 120.467 119.783C120.467 119.783 120.467 119.783 120.467 119.981C120.467 119.981 120.467 119.981 120.467 120.18C120.467 120.378 120.467 120.576 120.665 120.576L124.037 122.56C124.433 122.758 125.028 122.758 125.425 122.56L131.374 119.188C131.573 118.99 131.771 118.792 131.573 118.792C131.573 118.792 131.573 118.792 131.573 118.593C131.573 118.593 131.573 118.593 131.573 118.395C131.573 118.197 131.573 117.998 131.374 117.998ZM128.201 114.429L132.168 112.247C132.366 112.049 132.564 111.85 132.366 111.85C132.366 111.85 132.366 111.85 132.366 111.652C132.366 111.652 132.366 111.652 132.366 111.454C132.366 111.256 132.366 111.057 132.168 111.057L128.796 109.074C128.4 108.876 127.805 108.876 127.408 109.074L123.442 111.256C123.243 111.454 123.243 111.652 123.243 111.652C123.243 111.652 123.243 111.652 123.243 111.85C123.243 111.85 123.243 111.85 123.243 112.049C123.243 112.247 123.243 112.445 123.442 112.445L126.813 114.429C127.21 114.627 127.805 114.627 128.201 114.429ZM118.88 94.9936L122.252 96.9767C122.648 97.1751 123.243 97.1751 123.64 96.9767L127.606 94.7953C127.805 94.5969 128.003 94.3986 127.805 94.3986C127.805 94.3986 127.805 94.3986 127.805 94.2003C127.805 94.2003 127.805 94.2003 127.805 94.002C127.805 93.8037 127.805 93.6054 127.606 93.6054L124.235 91.6222C123.838 91.4239 123.243 91.4239 122.847 91.6222L118.88 93.8037C118.682 94.002 118.484 94.2003 118.682 94.2003C118.682 94.2003 118.682 94.2003 118.682 94.3986C118.682 94.3986 118.682 94.3986 118.682 94.5969C118.484 94.7953 118.682 94.9936 118.88 94.9936ZM112.534 98.7616L115.906 100.745C116.302 100.943 116.897 100.943 117.294 100.745L121.26 98.5633C121.459 98.365 121.657 98.1666 121.459 98.1666C121.459 98.1666 121.459 98.1666 121.459 97.9683C121.459 97.9683 121.459 97.9683 121.459 97.77C121.459 97.5717 121.459 97.3734 121.26 97.3734L117.889 95.3902C117.492 95.1919 116.897 95.1919 116.501 95.3902L112.534 97.5717C112.336 97.77 112.138 97.9683 112.336 97.9683C112.336 97.9683 112.336 97.9683 112.336 98.1666C112.336 98.1666 112.336 98.1666 112.336 98.365C112.138 98.365 112.336 98.5633 112.534 98.7616ZM97.6605 107.289L101.032 109.272C101.429 109.471 102.023 109.471 102.42 109.272L108.37 105.901C108.568 105.703 108.766 105.504 108.568 105.504C108.568 105.504 108.568 105.504 108.568 105.306C108.568 105.306 108.568 105.306 108.568 105.108C108.568 104.909 108.568 104.711 108.37 104.711L104.998 102.728C104.602 102.53 104.007 102.53 103.61 102.728L97.6605 106.099C97.4622 106.298 97.2639 106.496 97.4622 106.496C97.4622 106.496 97.4622 106.496 97.4622 106.694C97.4622 106.694 97.4622 106.694 97.4622 106.893C97.2639 106.893 97.2639 107.091 97.6605 107.289ZM106.188 102.331L109.56 104.314C109.956 104.513 110.551 104.513 110.948 104.314L114.914 102.133C115.112 101.935 115.311 101.736 115.112 101.736C115.112 101.736 115.112 101.736 115.112 101.538C115.112 101.538 115.112 101.538 115.112 101.34C115.112 101.141 115.112 100.943 114.914 100.943L111.543 98.9599C111.146 98.7616 110.551 98.7616 110.154 98.9599L106.188 101.141C105.99 101.34 105.792 101.538 105.99 101.538C105.99 101.538 105.99 101.538 105.99 101.736C105.99 101.736 105.99 101.736 105.99 101.935C105.792 102.133 105.792 102.331 106.188 102.331ZM124.433 97.5717C124.433 97.77 124.433 97.77 124.433 97.5717C124.433 97.77 124.433 97.77 124.433 97.77C124.433 97.9683 124.433 98.1666 124.632 98.1666L128.003 100.15C128.4 100.348 128.995 100.348 129.391 100.15L133.358 97.9683C133.556 97.77 133.754 97.5717 133.556 97.5717C133.556 97.5717 133.556 97.5717 133.556 97.3734C133.556 97.3734 133.556 97.3734 133.556 97.1751C133.556 96.9767 133.556 96.7784 133.358 96.7784L129.986 94.7953C129.59 94.5969 128.995 94.5969 128.598 94.7953L124.632 96.9767C124.433 97.3734 124.433 97.5717 124.433 97.5717ZM134.547 110.661L138.514 108.479C138.712 108.281 138.91 108.082 138.712 108.082C138.712 108.082 138.712 108.082 138.712 107.884C138.712 107.884 138.712 107.884 138.712 107.686C138.712 107.488 138.712 107.289 138.514 107.289L135.142 105.306C134.746 105.108 134.151 105.108 133.754 105.306L129.788 107.488C129.59 107.686 129.391 107.884 129.59 107.884C129.59 107.884 129.59 107.884 129.59 108.082C129.59 108.082 129.59 108.082 129.59 108.281C129.59 108.479 129.59 108.677 129.788 108.677L133.159 110.661C133.556 110.859 134.151 110.859 134.547 110.661ZM59.3854 129.302L62.7568 131.286C63.1534 131.484 63.7484 131.484 64.145 131.286L68.1113 129.104C68.3096 128.906 68.508 128.707 68.3096 128.707C68.3096 128.707 68.3096 128.707 68.3096 128.509C68.3096 128.509 68.3096 128.509 68.3096 128.311C68.3096 128.112 68.3096 127.914 68.1113 127.914L64.7399 125.931C64.3433 125.733 63.7484 125.733 63.3517 125.931L59.3854 128.112C59.1871 128.311 58.9888 128.509 59.1871 128.509C59.1871 128.509 59.1871 128.509 59.1871 128.707C59.1871 128.707 59.1871 128.707 59.1871 128.906C58.9888 129.104 59.1871 129.302 59.3854 129.302ZM65.7315 125.733C70.4911 128.509 68.9046 128.509 74.4575 125.336C74.6558 125.138 74.8541 124.939 74.6558 124.939C74.6558 124.939 74.6558 124.939 74.6558 124.741C74.6558 124.741 74.6558 124.741 74.6558 124.543C74.6558 124.344 74.6558 124.146 74.4575 124.146L71.0861 122.163C70.6894 121.965 70.0945 121.965 69.6979 122.163L65.7315 124.344C65.5332 124.543 65.3349 124.741 65.5332 124.741C65.5332 124.741 65.5332 124.741 65.5332 124.939C65.5332 124.939 65.5332 124.939 65.5332 125.138C65.5332 125.336 65.5332 125.534 65.7315 125.733ZM53.0393 133.07L56.4106 135.054C56.8073 135.252 57.4022 135.252 57.7989 135.054L61.7652 132.872C61.9635 132.674 62.1618 132.475 61.9635 132.475C61.9635 132.475 61.9635 132.475 61.9635 132.277C61.9635 132.277 61.9635 132.277 61.9635 132.079C61.9635 131.88 61.9635 131.682 61.7652 131.682L58.3938 129.699C57.9972 129.501 57.4022 129.501 57.0056 129.699L53.0393 131.88C52.8409 132.079 52.6426 132.277 52.8409 132.277C52.8409 132.277 52.8409 132.277 52.8409 132.475C52.8409 132.475 52.8409 132.475 52.8409 132.674C52.6426 132.674 52.8409 132.872 53.0393 133.07ZM72.0777 121.965L75.4491 123.948C75.8457 124.146 76.4406 124.146 76.8373 123.948L80.8036 121.766C81.0019 121.568 81.2002 121.37 81.0019 121.37C81.0019 121.37 81.0019 121.37 81.0019 121.171C81.0019 121.171 81.0019 121.171 81.0019 120.973C81.0019 120.775 81.0019 120.576 80.8036 120.576L77.4322 118.593C77.0356 118.395 76.4406 118.395 76.044 118.593L72.0777 120.775C71.8794 120.973 71.681 121.171 71.8793 121.171C71.8793 121.171 71.8793 121.171 71.8793 121.37C71.8793 121.37 71.8793 121.37 71.8793 121.568C71.8793 121.766 71.8794 121.766 72.0777 121.965ZM84.7699 114.627L88.1413 116.61C88.538 116.808 89.1329 116.808 89.5295 116.61L93.4959 114.429C93.6942 114.23 93.8925 114.032 93.6942 114.032C93.6942 114.032 93.6942 114.032 93.6942 113.834C93.6942 113.834 93.6942 113.834 93.6942 113.635C93.6942 113.437 93.6942 113.239 93.4959 113.239L90.1245 111.256C89.7279 111.057 89.1329 111.057 88.7363 111.256L84.7699 113.437C84.5716 113.635 84.3733 113.834 84.5716 113.834C84.5716 113.834 84.5716 113.834 84.5716 114.032C84.5716 114.032 84.5716 114.032 84.5716 114.23C84.5716 114.429 84.5716 114.429 84.7699 114.627ZM78.4238 118.395L81.7952 120.378C82.1918 120.576 82.7868 120.576 83.1834 120.378L87.1497 118.197C87.3481 117.998 87.5464 117.8 87.3481 117.8C87.3481 117.8 87.3481 117.8 87.3481 117.602C87.3481 117.602 87.3481 117.602 87.3481 117.403C87.3481 117.205 87.3481 117.007 87.1497 117.007L83.7783 115.024C83.3817 114.825 82.7868 114.825 82.3901 115.024L78.4238 117.205C78.2255 117.403 78.0272 117.602 78.2255 117.602C78.2255 117.602 78.2255 117.602 78.2255 117.8C78.2255 117.8 78.2255 117.8 78.2255 117.998C78.2255 117.998 78.2255 118.197 78.4238 118.395ZM128.003 101.141L123.64 98.5633C123.243 98.365 122.45 98.365 121.855 98.5633L111.939 104.314C111.741 104.513 111.543 104.711 111.543 104.909C111.543 104.909 111.543 104.909 111.543 105.108C111.543 105.108 111.543 105.108 111.543 105.306C111.543 105.504 111.543 105.703 111.939 105.901L120.665 110.859C121.062 111.057 121.855 111.057 122.45 110.859L139.109 101.34C139.307 101.141 139.505 100.943 139.505 100.745C139.505 100.745 139.505 100.745 139.505 100.546C139.505 100.546 139.505 100.546 139.505 100.348C139.505 100.15 139.505 99.9515 139.109 99.7532L135.936 97.9683C135.539 97.77 135.142 97.77 134.746 97.9683L128.995 101.141C128.598 101.34 128.201 101.34 128.003 101.141Z" fill="#8FE269"/>
<path d="M81.2002 169.76L78.2255 167.975C78.0272 167.777 77.8289 167.578 77.8289 167.38V166.587C77.8289 166.388 78.0272 166.388 78.2255 166.388L81.2002 168.173C81.3986 168.371 81.5969 168.57 81.5969 168.768V169.561C81.3986 169.76 81.2002 169.958 81.2002 169.76Z" fill="#152115"/>
<path d="M76.4405 166.983L73.4657 165.198C73.2674 165 73.0691 164.801 73.0691 164.603V163.81C73.0691 163.612 73.2674 163.612 73.4657 163.612L76.4405 165.396C76.6388 165.595 76.8371 165.793 76.8371 165.991V166.785C76.6388 167.181 76.6388 167.181 76.4405 166.983Z" fill="#152115"/>
<path d="M48.8746 139.416L44.9083 141.598C44.5116 141.796 43.9167 141.796 43.5201 141.598L40.1487 139.615C39.752 139.416 39.752 139.02 40.1487 138.821L44.115 136.64C44.5116 136.442 45.1066 136.442 45.5032 136.64L48.8746 138.623C49.2712 138.821 49.2712 139.218 48.8746 139.416ZM55.2207 134.855L51.8494 132.872C51.4527 132.674 50.8578 132.674 50.4611 132.872L46.4948 135.053C46.0982 135.252 46.0982 135.648 46.4948 135.847L49.8662 137.83C50.2628 138.028 50.8578 138.028 51.2544 137.83L55.2207 135.648C55.6174 135.45 55.6174 135.252 55.2207 134.855ZM61.5669 131.285L58.1955 129.302C57.7989 129.104 57.2039 129.104 56.8073 129.302L52.8409 131.484C52.4443 131.682 52.4443 132.079 52.8409 132.277L56.2123 134.26C56.609 134.458 57.2039 134.458 57.6005 134.26L61.5669 132.079C61.9635 131.88 61.9635 131.484 61.5669 131.285ZM68.1113 127.517L64.7399 125.534C64.3433 125.336 63.7484 125.336 63.3517 125.534L59.3854 127.716C58.9888 127.914 58.9888 128.311 59.3854 128.509L62.7568 130.492C63.1534 130.69 63.7484 130.69 64.145 130.492L68.1113 128.311C68.3096 128.112 68.3096 127.914 68.1113 127.517ZM74.4575 123.948L71.0861 121.964C70.6894 121.766 70.0945 121.766 69.6979 121.964L65.7315 124.146C65.3349 124.344 65.3349 124.741 65.7315 124.939L69.1029 126.922C69.4995 127.121 70.0945 127.121 70.4911 126.922L74.4575 124.741C74.8541 124.543 74.8541 124.146 74.4575 123.948ZM80.8036 120.18L77.4322 118.196C77.0356 117.998 76.4406 117.998 76.044 118.196L72.0777 120.378C71.681 120.576 71.681 120.973 72.0777 121.171L75.449 123.154C75.8457 123.353 76.4406 123.353 76.8373 123.154L80.8036 120.973C81.2002 120.775 81.2002 120.378 80.8036 120.18ZM87.1497 116.61L83.7783 114.627C83.3817 114.428 82.7868 114.428 82.3901 114.627L78.4238 116.808C78.0272 117.007 78.0272 117.403 78.4238 117.601L81.7952 119.585C82.1918 119.783 82.7868 119.783 83.1834 119.585L87.1497 117.403C87.5464 117.205 87.5464 116.808 87.1497 116.61ZM93.4959 112.842L90.1245 110.859C89.7278 110.66 89.1329 110.66 88.7363 110.859L84.7699 113.04C84.3733 113.238 84.3733 113.635 84.7699 113.833L88.1413 115.817C88.5379 116.015 89.1329 116.015 89.5295 115.817L93.4959 113.635C93.8925 113.437 93.8925 113.04 93.4959 112.842ZM99.842 109.272L96.4706 107.289C96.074 107.091 95.479 107.091 95.0824 107.289L91.1161 109.47C90.7194 109.669 90.7194 110.065 91.1161 110.264L94.4874 112.247C94.8841 112.445 95.479 112.445 95.8757 112.247L99.842 110.065C100.239 109.867 100.239 109.47 99.842 109.272ZM108.171 104.314L104.8 102.331C104.403 102.133 103.808 102.133 103.412 102.331L97.4622 105.702C97.0656 105.901 97.0656 106.297 97.4622 106.496L100.834 108.479C101.23 108.677 101.825 108.677 102.222 108.479L108.171 105.108C108.568 104.909 108.568 104.513 108.171 104.314ZM132.168 110.66L128.796 108.677C128.4 108.479 127.805 108.479 127.408 108.677L123.442 110.859C123.045 111.057 123.045 111.454 123.442 111.652L126.813 113.635C127.21 113.833 127.805 113.833 128.201 113.635L132.168 111.454C132.564 111.255 132.564 110.859 132.168 110.66ZM138.514 107.091L135.142 105.108C134.746 104.909 134.151 104.909 133.754 105.108L129.788 107.289C129.391 107.487 129.391 107.884 129.788 108.082L133.159 110.065C133.556 110.264 134.151 110.264 134.547 110.065L138.514 107.884C138.91 107.686 138.91 107.289 138.514 107.091ZM144.86 103.323L141.488 101.339C141.092 101.141 140.497 101.141 140.1 101.339L136.134 103.521C135.737 103.719 135.737 104.116 136.134 104.314L139.505 106.297C139.902 106.496 140.497 106.496 140.894 106.297L144.86 104.116C145.257 103.918 145.257 103.521 144.86 103.323ZM137.919 114.032L134.547 112.049C134.151 111.85 133.556 111.85 133.159 112.049L129.193 114.23C128.796 114.428 128.796 114.825 129.193 115.023L132.564 117.007C132.961 117.205 133.556 117.205 133.952 117.007L137.919 114.825C138.315 114.627 138.315 114.23 137.919 114.032ZM144.265 110.462L140.894 108.479C140.497 108.281 139.902 108.281 139.505 108.479L135.539 110.66C135.142 110.859 135.142 111.255 135.539 111.454L138.91 113.437C139.307 113.635 139.902 113.635 140.299 113.437L144.265 111.255C144.662 111.057 144.662 110.66 144.265 110.462ZM150.809 106.694L147.438 104.711C147.041 104.513 146.446 104.513 146.05 104.711L142.083 106.892C141.687 107.091 141.687 107.487 142.083 107.686L145.455 109.669C145.851 109.867 146.446 109.867 146.843 109.669L150.809 107.487C151.008 107.289 151.008 106.892 150.809 106.694ZM56.8073 140.805L53.4359 138.821C53.0393 138.623 52.4443 138.623 52.0477 138.821L46.0982 142.193C45.7015 142.391 45.7015 142.788 46.0982 142.986L49.4696 144.969C49.8662 145.167 50.4611 145.167 50.8578 144.969L56.8073 141.598C57.2039 141.399 57.2039 141.003 56.8073 140.805ZM63.3517 137.036L59.9803 135.053C59.5837 134.855 58.9888 134.855 58.5921 135.053L54.6258 137.235C54.2292 137.433 54.2292 137.83 54.6258 138.028L57.9972 140.011C58.3938 140.21 58.9888 140.21 59.3854 140.011L63.3517 137.83C63.55 137.631 63.55 137.235 63.3517 137.036ZM69.6979 133.467L66.3265 131.484C65.9298 131.285 65.3349 131.285 64.9383 131.484L60.9719 133.665C60.5753 133.863 60.5753 134.26 60.9719 134.458L64.3433 136.442C64.7399 136.64 65.3349 136.64 65.7315 136.442L69.6979 134.26C70.0945 134.062 70.0945 133.665 69.6979 133.467ZM76.044 129.699L72.6726 127.716C72.276 127.517 71.681 127.517 71.2844 127.716L67.3181 129.897C66.9214 130.095 66.9214 130.492 67.3181 130.69L70.6894 132.674C71.0861 132.872 71.681 132.872 72.0777 132.674L76.044 130.492C76.4406 130.294 76.4406 129.897 76.044 129.699ZM82.3901 126.129L79.0187 124.146C78.6221 123.948 78.0272 123.948 77.6305 124.146L73.6642 126.327C73.2676 126.526 73.2676 126.922 73.6642 127.121L77.0356 129.104C77.4322 129.302 78.0272 129.302 78.4238 129.104L82.3901 126.922C82.7868 126.724 82.7868 126.327 82.3901 126.129ZM88.7363 122.361L85.3649 120.378C84.9682 120.18 84.3733 120.18 83.9767 120.378L80.0103 122.559C79.6137 122.758 79.6137 123.154 80.0103 123.353L83.3817 125.336C83.7783 125.534 84.3733 125.534 84.7699 125.336L88.7363 123.154C89.1329 122.956 89.1329 122.559 88.7363 122.361ZM95.0824 118.791L91.711 116.808C91.3144 116.61 90.7194 116.61 90.3228 116.808L86.3565 118.99C85.9598 119.188 85.9598 119.585 86.3565 119.783L89.7278 121.766C90.1245 121.964 90.7194 121.964 91.1161 121.766L95.0824 119.585C95.479 119.386 95.479 118.99 95.0824 118.791ZM101.429 115.023L98.0571 113.04C97.6605 112.842 97.0656 112.842 96.6689 113.04L92.7026 115.222C92.306 115.42 92.306 115.817 92.7026 116.015L96.074 117.998C96.4706 118.196 97.0656 118.196 97.4622 117.998L101.429 115.817C101.825 115.618 101.825 115.222 101.429 115.023ZM107.775 111.454L104.403 109.47C104.007 109.272 103.412 109.272 103.015 109.47L99.0487 111.652C98.6521 111.85 98.6521 112.247 99.0487 112.445L102.42 114.428C102.817 114.627 103.412 114.627 103.808 114.428L107.775 112.247C108.171 111.85 108.171 111.652 107.775 111.454ZM114.121 107.686L110.749 105.702C110.353 105.504 109.758 105.504 109.361 105.702L105.395 107.884C104.998 108.082 104.998 108.479 105.395 108.677L108.766 110.66C109.163 110.859 109.758 110.859 110.154 110.66L114.121 108.479C114.517 108.281 114.517 107.884 114.121 107.686ZM60.5753 145.366L57.2039 143.383C56.8073 143.184 56.2123 143.184 55.8157 143.383L51.8494 145.564C51.4527 145.762 51.4527 146.159 51.8494 146.357L55.2207 148.341C55.6174 148.539 56.2123 148.539 56.609 148.341L60.5753 146.159C60.7736 145.961 60.7736 145.564 60.5753 145.366ZM66.9214 141.598L63.55 139.615C63.1534 139.416 62.5585 139.416 62.1618 139.615L58.1955 141.796C57.7989 141.994 57.7989 142.391 58.1955 142.589L61.5669 144.573C61.9635 144.771 62.5585 144.771 62.9551 144.573L66.9214 142.391C67.3181 142.193 67.3181 141.796 66.9214 141.598ZM73.2676 138.028L69.8962 136.045C69.4995 135.847 68.9046 135.847 68.508 136.045L64.5416 138.226C64.145 138.425 64.145 138.821 64.5416 139.02L67.913 141.003C68.3096 141.201 68.9046 141.201 69.3012 141.003L73.2676 138.821C73.6642 138.623 73.6642 138.226 73.2676 138.028ZM79.6137 134.26L76.2423 132.277C75.8457 132.079 75.2507 132.079 74.8541 132.277L70.8878 134.458C70.4911 134.657 70.4911 135.053 70.8878 135.252L74.2591 137.235C74.6558 137.433 75.2507 137.433 75.6474 137.235L79.6137 135.053C80.0103 134.855 80.0103 134.458 79.6137 134.26ZM72.0777 151.91L68.7063 149.927C68.3096 149.729 67.7147 149.729 67.3181 149.927L63.3517 152.109C62.9551 152.307 62.9551 152.704 63.3517 152.902L66.7231 154.885C67.1197 155.083 67.7147 155.083 68.1113 154.885L72.0777 152.704C72.4743 152.505 72.4743 152.109 72.0777 151.91ZM78.4238 148.341L75.0524 146.357C74.6558 146.159 74.0608 146.159 73.6642 146.357L69.6979 148.737C69.3012 148.936 69.3012 149.332 69.6979 149.53L73.0692 151.514C73.4659 151.712 74.0608 151.712 74.4575 151.514L78.4238 149.332C78.8204 148.936 78.8204 148.539 78.4238 148.341ZM84.7699 144.573L81.3985 142.589C81.0019 142.391 80.407 142.391 80.0103 142.589L76.044 144.771C75.6474 144.969 75.6474 145.366 76.044 145.564L79.4154 147.547C79.812 147.746 80.407 147.746 80.8036 147.547L84.7699 145.366C85.1666 145.167 85.1666 144.771 84.7699 144.573ZM91.1161 141.003L87.7447 139.02C87.348 138.821 86.7531 138.821 86.3565 139.02L82.3901 141.201C81.9935 141.399 81.9935 141.796 82.3901 141.994L85.7615 143.978C86.1581 144.176 86.7531 144.176 87.1497 143.978L91.1161 141.796C91.5127 141.598 91.5127 141.201 91.1161 141.003ZM131.374 117.8L128.003 115.817C127.606 115.618 127.011 115.618 126.615 115.817L120.665 119.188C120.269 119.386 120.269 119.783 120.665 119.981L124.037 121.964C124.433 122.163 125.028 122.163 125.425 121.964L131.374 118.593C131.771 118.395 131.771 117.998 131.374 117.8ZM85.9598 130.69L82.5884 128.707C82.1918 128.509 81.5969 128.509 81.2002 128.707L77.2339 130.889C76.8373 131.087 76.8373 131.484 77.2339 131.682L80.6053 133.665C81.0019 133.863 81.5969 133.863 81.9935 133.665L85.9598 131.484C86.3565 131.087 86.3565 130.889 85.9598 130.69ZM92.306 126.922L88.9346 124.939C88.5379 124.741 87.943 124.741 87.5464 124.939L83.58 127.121C83.1834 127.319 83.1834 127.716 83.58 127.914L86.9514 129.897C87.348 130.095 87.943 130.095 88.3396 129.897L92.306 127.716C92.7026 127.517 92.7026 127.121 92.306 126.922ZM98.6521 123.154L95.2807 121.171C94.8841 120.973 94.2891 120.973 93.8925 121.171L89.9262 123.353C89.5295 123.551 89.5295 123.948 89.9262 124.146L93.2975 126.129C93.6942 126.327 94.2891 126.327 94.6858 126.129L98.6521 123.948C99.0487 123.749 99.0487 123.551 98.6521 123.154ZM104.998 119.585L101.627 117.601C101.23 117.403 100.635 117.403 100.239 117.601L96.2723 119.783C95.8757 119.981 95.8757 120.378 96.2723 120.576L99.6437 122.559C100.04 122.758 100.635 122.758 101.032 122.559L104.998 120.378C105.395 120.18 105.395 119.783 104.998 119.585ZM111.344 115.817L107.973 113.833C107.576 113.635 106.981 113.635 106.585 113.833L102.618 116.015C102.222 116.213 102.222 116.61 102.618 116.808L105.99 118.791C106.386 118.99 106.981 118.99 107.378 118.791L111.344 116.61C111.741 116.412 111.741 116.213 111.344 115.817ZM119.872 111.057L116.501 109.074C116.104 108.876 115.509 108.876 115.112 109.074L109.163 112.445C108.766 112.644 108.766 113.04 109.163 113.238L112.534 115.222C112.931 115.42 113.526 115.42 113.922 115.222L119.872 111.85C120.269 111.652 120.269 111.255 119.872 111.057ZM68.508 147.349L65.1366 145.366C64.7399 145.167 64.145 145.167 63.7484 145.366L57.7989 148.737C57.4022 148.936 57.4022 149.332 57.7989 149.53L61.1702 151.514C61.5669 151.712 62.1618 151.712 62.5585 151.514L68.508 148.142C68.9046 147.944 68.9046 147.746 68.508 147.349ZM74.8541 143.779L71.4827 141.796C71.0861 141.598 70.4911 141.598 70.0945 141.796L66.1282 143.978C65.7315 144.176 65.7315 144.573 66.1282 144.771L69.4995 146.754C69.8962 146.952 70.4911 146.952 70.8878 146.754L74.8541 144.573C75.2507 144.374 75.2507 143.978 74.8541 143.779ZM81.2002 140.011L77.8288 138.028C77.4322 137.83 76.8373 137.83 76.4406 138.028L72.4743 140.21C72.0777 140.408 72.0777 140.805 72.4743 141.003L75.8457 142.986C76.2423 143.184 76.8373 143.184 77.2339 142.986L81.2002 140.805C81.5969 140.606 81.5969 140.408 81.2002 140.011ZM87.5464 136.442L84.175 134.458C83.7783 134.26 83.1834 134.26 82.7868 134.458L78.8204 136.64C78.4238 136.838 78.4238 137.235 78.8204 137.433L82.1918 139.416C82.5884 139.615 83.1834 139.615 83.58 139.416L87.5464 137.235C87.943 137.036 87.943 136.64 87.5464 136.442ZM93.8925 132.674L90.5211 130.69C90.1245 130.492 89.5295 130.492 89.1329 130.69L85.1666 132.872C84.7699 133.07 84.7699 133.467 85.1666 133.665L88.5379 135.648C88.9346 135.847 89.5295 135.847 89.9262 135.648L93.8925 133.467C94.2891 133.268 94.2891 132.872 93.8925 132.674ZM123.045 122.559L119.674 120.576C119.277 120.378 118.682 120.378 118.285 120.576L88.7363 137.631C88.3396 137.83 88.3396 138.226 88.7363 138.425L92.1076 140.408C92.5043 140.606 93.0992 140.606 93.4959 140.408L123.045 123.353C123.442 123.154 123.442 122.758 123.045 122.559ZM100.239 129.104L96.8672 127.121C96.4706 126.922 95.8757 126.922 95.479 127.121L91.5127 129.302C91.1161 129.5 91.1161 129.897 91.5127 130.095L94.8841 132.079C95.2807 132.277 95.8757 132.277 96.2723 132.079L100.239 129.897C100.635 129.699 100.635 129.302 100.239 129.104ZM106.585 125.336L103.213 123.353C102.817 123.154 102.222 123.154 101.825 123.353L97.8588 125.534C97.4622 125.732 97.4622 126.129 97.8588 126.327L101.23 128.311C101.627 128.509 102.222 128.509 102.618 128.311L106.585 126.129C106.981 125.931 106.981 125.534 106.585 125.336ZM112.931 121.766L109.56 119.783C109.163 119.585 108.568 119.585 108.171 119.783L104.205 121.964C103.808 122.163 103.808 122.559 104.205 122.758L107.576 124.741C107.973 124.939 108.568 124.939 108.965 124.741L112.931 122.559C113.328 122.361 113.328 121.964 112.931 121.766ZM119.475 117.998L116.104 116.015C115.707 115.817 115.112 115.817 114.716 116.015L110.749 118.196C110.353 118.395 110.353 118.791 110.749 118.99L114.121 120.973C114.517 121.171 115.112 121.171 115.509 120.973L119.475 118.791C119.872 118.593 119.872 118.196 119.475 117.998ZM125.821 114.428L122.45 112.445C122.053 112.247 121.459 112.247 121.062 112.445L117.096 114.627C116.699 114.825 116.699 115.222 117.096 115.42L120.467 117.403C120.864 117.601 121.459 117.601 121.855 117.403L125.821 115.222C126.218 115.023 126.218 114.627 125.821 114.428ZM114.716 100.745L111.344 98.7614C110.948 98.5631 110.353 98.5631 109.956 98.7614L105.99 100.943C105.593 101.141 105.593 101.538 105.99 101.736L109.361 103.719C109.758 103.918 110.353 103.918 110.749 103.719L114.716 101.538C115.112 101.141 115.112 100.943 114.716 100.745ZM121.062 96.9765L117.69 94.9934C117.294 94.795 116.699 94.795 116.302 94.9934L112.336 97.1748C111.939 97.3732 111.939 97.7698 112.336 97.9681L115.707 99.9513C116.104 100.15 116.699 100.15 117.096 99.9513L121.062 97.7698C121.459 97.5715 121.459 97.1748 121.062 96.9765ZM127.408 93.2085L124.037 91.2253C123.64 91.027 123.045 91.027 122.648 91.2253L118.682 93.4068C118.285 93.6051 118.285 94.0018 118.682 94.2001L122.053 96.1833C122.45 96.3816 123.045 96.3816 123.442 96.1833L127.408 94.0018C127.805 93.8035 127.805 93.6051 127.408 93.2085ZM133.358 96.5799L129.986 94.5967C129.59 94.3984 128.995 94.3984 128.598 94.5967L124.632 96.7782C124.235 96.9765 124.235 97.3732 124.632 97.5715L128.003 99.5546C128.4 99.753 128.995 99.753 129.391 99.5546L133.358 97.3732C133.754 97.1748 133.754 96.9765 133.358 96.5799ZM138.91 99.753L135.737 97.9681C135.341 97.7698 134.944 97.7698 134.547 97.9681L128.995 101.141C128.796 101.339 128.201 101.339 128.003 101.141L123.64 98.5631C123.243 98.3647 122.45 98.3647 121.855 98.5631L111.939 104.314C111.543 104.513 111.543 105.108 111.939 105.306L120.665 110.264C121.062 110.462 121.855 110.462 122.45 110.264L139.109 100.745C139.307 100.546 139.307 99.9513 138.91 99.753Z" fill="url(#paint3_linear_130_1328)"/>
<path d="M37.3724 118.395C37.1741 118.395 37.1741 118.395 36.9758 118.395C36.7774 118.395 36.7774 117.999 36.9758 117.8L46.495 104.513C46.495 104.315 46.6933 104.315 46.6933 104.315L48.0815 103.521L59.9805 87.4578L60.1788 87.2595L92.5044 68.6177L104.205 49.1826C104.205 48.9843 104.403 48.9843 104.602 48.786L108.965 46.2079L121.657 28.3594C121.657 28.1611 121.855 28.1611 121.855 28.1611L140.299 17.452C140.894 17.6503 141.092 17.6503 141.092 17.8486C141.092 18.0469 140.894 18.4435 140.695 18.4435L122.45 28.9543L109.758 46.8028C109.758 47.0012 109.56 47.0012 109.56 47.0012L104.998 49.5793L93.2977 69.0143C93.2977 69.2126 93.0994 69.2126 92.9011 69.4109L60.5755 88.0527L48.6764 104.116L48.4781 104.315L47.0899 105.108L37.769 118.197C37.5707 118.197 37.5707 118.395 37.3724 118.395Z" fill="#AFFFBC"/>
<path d="M122.649 55.9255L107.775 64.4531C107.576 64.4531 107.576 64.4531 107.378 64.4531L96.4707 54.3389L89.5296 58.3053L82.1919 68.8161C82.1919 69.0144 81.9936 69.0144 81.9936 69.0144L63.7485 79.5252L52.4444 94.3989L52.2461 94.5972L37.3723 103.125C37.174 103.323 36.9757 103.125 36.9757 102.927C36.9757 102.728 37.174 102.332 37.3723 102.332L51.8495 94.0023L63.1535 79.1285L63.3518 78.9302L81.597 68.4194L88.9347 57.9086C88.9347 57.7103 89.133 57.7103 89.133 57.7103L96.2724 53.5457C96.4707 53.5457 96.4707 53.5457 96.669 53.5457L107.576 63.6598L122.252 55.3305L129.193 46.208L129.391 46.0096L140.497 39.6635C140.695 39.4652 140.894 39.6635 140.894 39.8618C140.894 40.0601 140.695 40.4568 140.497 40.4568L129.59 46.8029L122.649 55.9255C122.649 55.7272 122.649 55.7272 122.649 55.9255Z" fill="#C4DEFE"/>
<path d="M38.9589 109.669L37.5707 110.462C37.3724 110.661 37.1741 110.462 37.1741 110.264C37.1741 110.066 37.3724 109.669 37.5707 109.669L38.7606 109.074L68.3098 69.8076L68.5081 69.6092L77.6307 64.453L85.96 52.1574C85.96 51.9591 86.1583 51.9591 86.1583 51.9591L96.2725 46.0096L110.551 26.7728L110.75 26.5745L140.299 9.51928C140.497 9.32096 140.695 9.51928 140.695 9.7176C141.092 9.51928 140.894 9.91591 140.695 9.91591L111.345 26.9711L97.0657 46.2079L96.8674 46.4062L86.7532 52.3557L78.424 64.6513C78.424 64.8496 78.2256 64.8496 78.2256 64.8496L69.1031 70.2042L39.1572 109.471C39.1572 109.669 38.9589 109.669 38.9589 109.669Z" fill="#87F684"/>
<path d="M47.2882 86.0695L37.5707 91.6223C37.3724 91.8206 37.1741 91.6223 37.1741 91.424C37.1741 91.2257 37.3724 90.829 37.5707 90.829L47.0899 85.2762L52.0478 78.93L52.2461 78.7317L58.9889 74.7654L63.1536 68.6176C63.1536 68.4193 63.3519 68.4193 63.3519 68.4193L70.0946 64.4529L84.9684 43.0347C84.9684 42.8364 85.1667 42.8364 85.1667 42.8364L92.9011 38.2751L107.18 19.2367L107.378 19.0384L140.299 0C140.894 0 141.092 0.198317 141.092 0.396633C141.092 0.59495 140.894 0.991584 140.695 0.991584L107.973 19.8317L93.6943 38.8701L93.496 39.0684L85.5634 43.6297L70.6896 65.0479C70.6896 65.2462 70.4913 65.2462 70.4913 65.2462L63.7485 69.2125L59.5839 75.3604C59.5839 75.5587 59.3855 75.5587 59.3855 75.5587L52.6428 79.525L47.6849 85.8711C47.4865 85.8711 47.4865 86.0695 47.2882 86.0695Z" fill="#55CC2D"/>
<path d="M140.696 32.3259L122.252 43.035C122.054 43.035 122.054 43.035 121.855 43.035L111.741 34.1108L82.3905 50.9677C82.1921 50.9677 82.1921 50.9677 82.1921 50.9677L67.715 44.6215L37.7692 61.8751C37.5709 62.0734 37.3726 61.8751 37.3726 61.6768C37.3726 61.4785 37.5709 61.0818 37.7692 61.0818L67.715 44.0266C67.9133 44.0266 67.9133 44.0266 67.9133 44.0266L82.3905 50.3727L111.741 33.3175C111.94 33.3175 111.94 33.3175 112.138 33.3175L122.252 42.2417L140.497 31.7309C140.696 31.5326 140.894 31.7309 140.894 31.9293C141.092 31.9293 140.894 32.1276 140.696 32.3259Z" fill="#40A31A"/>
<path d="M140.894 60.4863L140.695 60.6846V61.2796L137.324 63.2628V62.6678C137.324 62.6678 137.324 62.4695 137.126 62.6678L136.927 62.8661V63.4611L133.556 65.4442V64.8493C133.556 64.8493 133.556 64.651 133.358 64.8493L133.159 65.0476V65.6426L129.788 67.6257V67.0308C129.788 67.0308 129.788 66.8325 129.59 67.0308L129.391 67.2291V67.824L126.02 69.8072V69.2123C126.02 69.2123 126.02 69.0139 125.822 69.2123L125.623 69.4106V70.0055L122.252 71.9887V71.3937C122.252 71.3937 122.252 71.1954 122.054 71.3937L121.855 71.5921V72.187L118.484 74.1702V73.3769C118.484 73.3769 118.484 73.1786 118.286 73.3769L118.087 73.5752V74.1702L114.716 76.1533V75.5584C114.716 75.5584 114.716 75.3601 114.518 75.5584L114.319 75.7567V76.3517L110.948 78.3348V77.7399C110.948 77.7399 110.948 77.5416 110.75 77.7399L110.551 77.9382V78.5331L107.18 80.5163V79.9214C107.18 79.9214 107.18 79.723 106.981 79.9214L106.783 80.1197V80.7146L103.412 82.6978V82.1028C103.412 82.1028 103.412 81.9045 103.213 82.1028L103.015 82.3012V82.8961L99.6438 84.8793V84.2843C99.6438 84.2843 99.6438 84.086 99.4454 84.2843L99.2471 84.4826V85.0776L95.8758 87.0608V86.4658C95.8758 86.4658 95.8757 86.2675 95.6774 86.4658L95.4791 86.6641V87.2591L92.1077 89.2422V88.6473C92.1077 88.6473 92.1077 88.449 91.9094 88.6473L91.7111 88.8456V89.4406L88.3397 91.4237V90.8288C88.3397 90.8288 88.3397 90.6305 88.1414 90.8288L87.9431 91.0271V91.2254L85.5633 93.2086V92.6136C85.5633 92.6136 85.5633 92.4153 85.365 92.6136L85.1666 92.812V93.4069L81.7953 95.3901V94.7951C81.7953 94.7951 81.7953 94.5968 81.5969 94.7951L81.3986 94.9934V95.5884L78.0272 97.5716V96.9766C78.0272 96.9766 78.0272 96.7783 77.8289 96.9766L77.6306 97.1749V97.7699L74.2592 99.753V99.1581C74.2592 99.1581 74.2592 98.9598 74.0609 99.1581L73.8626 99.3564V99.9514L70.4912 101.935V101.141C70.4912 101.141 70.4912 100.943 70.2929 101.141L70.0946 101.34V101.935L66.7232 103.918V103.323C66.7232 103.323 66.7232 103.124 66.5249 103.323L66.3266 103.521V104.116L62.9552 106.099V105.504C62.9552 105.504 62.9552 105.306 62.7569 105.504L62.5585 105.703V106.297L59.1872 108.281V107.686C59.1872 107.686 59.1872 107.487 58.9888 107.686L58.7905 107.884V108.479L55.4191 110.462V109.867C55.4191 109.867 55.4191 109.669 55.2208 109.867L55.0225 110.066V110.66L51.6511 112.644V112.049C51.6511 112.049 51.6511 111.85 51.4528 112.049L51.2545 112.247V112.842L47.8831 114.825V114.23C47.8831 114.23 47.8831 114.032 47.6848 114.23L47.4865 114.428V115.023L44.1151 117.007V116.412C44.1151 116.412 44.1151 116.213 43.9168 116.412L43.7185 116.61V117.205L40.3471 119.188V118.593C40.3471 118.593 40.3471 118.395 40.1488 118.593L39.9504 118.791V118.99L36.5791 120.973V120.378C36.5791 120.378 36.5791 120.18 36.3807 120.378L36.1824 120.576V121.171L34.0009 122.956V119.585L34.5959 119.188L34.7942 118.99C34.7942 118.99 34.7942 118.791 34.5959 118.99L34.0009 119.188V115.817L34.5959 115.42L34.7942 115.222C34.7942 115.222 34.7942 115.023 34.5959 115.222L34.0009 115.42V112.049L34.5959 111.652L34.7942 111.454C34.7942 111.454 34.7942 111.255 34.5959 111.454L34.0009 111.85V108.479L34.5959 108.082L34.7942 107.884C34.7942 107.884 34.7942 107.686 34.5959 107.884L34.0009 108.082V104.711L34.5959 104.314L34.7942 104.116C34.7942 104.116 34.7942 103.918 34.5959 104.116L34.0009 104.513V101.141L34.5959 100.745L34.7942 100.546C34.7942 100.546 34.7942 100.348 34.5959 100.546L34.0009 100.745V97.3732L34.5959 96.9766L34.7942 96.7783C34.7942 96.7783 34.7942 96.58 34.5959 96.7783L34.0009 96.9766V93.6052L34.5959 93.2086L34.7942 93.0103C34.7942 93.0103 34.7942 92.812 34.5959 93.0103L34.0009 93.4069V90.0355L34.5959 89.6389L34.7942 89.4406C34.7942 89.4406 34.7942 89.2422 34.5959 89.4406L34.0009 89.6389V86.2675L34.5959 85.8709L34.7942 85.6726C34.7942 85.6726 34.7942 85.4742 34.5959 85.6726L34.0009 86.0692V82.6978L34.5959 82.3012L34.7942 82.1028C34.7942 82.1028 34.7942 81.9045 34.5959 82.1028L34.0009 82.3012V78.9298L34.5959 78.5331L34.7942 78.3348C34.7942 78.3348 34.7942 78.1365 34.5959 78.3348L34.0009 78.5331V75.1618L34.5959 74.7651L34.7942 74.5668C34.7942 74.5668 34.7942 74.3685 34.5959 74.5668L34.0009 74.9634V71.5921L34.5959 71.1954L34.7942 70.9971C34.7942 70.9971 34.7942 70.7988 34.5959 70.9971L34.0009 71.1954V67.824L34.5959 67.4274L34.7942 67.2291C34.7942 67.2291 34.7942 67.0308 34.5959 67.2291L34.0009 67.4274V64.056L34.5959 63.6594L34.7942 63.4611C34.7942 63.4611 34.7942 63.2628 34.5959 63.4611L34.0009 63.8577V60.4863L34.5959 60.0897L34.7942 59.8914C34.7942 59.8914 34.7942 59.6931 34.5959 59.8914L34.0009 60.0897V56.7183L34.5959 56.3217L34.7942 56.1234C34.7942 56.1234 34.7942 55.925 34.5959 56.1234L34.0009 56.52V53.1486L34.5959 52.752L34.7942 52.5537C34.7942 52.5537 34.7942 52.3553 34.5959 52.5537L33.0094 53.5452L32.811 53.7436C32.811 53.7436 32.811 53.9419 33.0094 53.7436L33.6043 53.3469V56.7183L33.0094 57.1149L32.811 57.3133C32.811 57.3133 32.811 57.5116 33.0094 57.3133L33.6043 56.9166V60.288L33.0094 60.6846L32.811 60.883C32.811 60.883 32.811 61.0813 33.0094 60.883L33.6043 60.4863V63.8577L33.0094 64.2543L32.811 64.4527C32.811 64.4527 32.811 64.651 33.0094 64.4527L33.6043 64.056V67.4274L33.0094 67.824L32.811 68.0224C32.811 68.0224 32.811 68.2207 33.0094 68.0224L33.6043 67.6257V71.3937L33.0094 71.7904L32.811 71.9887C32.811 71.9887 32.811 72.187 33.0094 71.9887L33.6043 71.5921V74.9634L33.0094 75.3601L32.811 75.5584C32.811 75.5584 32.811 75.7567 33.0094 75.5584L33.6043 75.1618V78.5331L33.0094 78.9298L32.811 79.1281C32.811 79.1281 32.811 79.3264 33.0094 79.1281L33.6043 78.7315V82.1028L33.0094 82.4995L32.811 82.6978C32.811 82.6978 32.811 82.8961 33.0094 82.6978L33.6043 82.3012V85.6726L33.0094 86.0692L32.811 86.2675C32.811 86.2675 32.811 86.4658 33.0094 86.2675L33.6043 85.8709V89.2422L33.0094 89.6389L32.811 89.8372C32.811 89.8372 32.811 90.0355 33.0094 89.8372L33.6043 89.4406V92.812L33.0094 93.2086L32.811 93.4069C32.811 93.4069 32.811 93.6052 33.0094 93.4069L33.6043 93.0103V96.3816L33.0094 96.7783L32.811 96.9766C32.811 96.9766 32.811 97.1749 33.0094 96.9766L33.6043 96.58V99.9514L33.0094 100.348L32.811 100.546C32.811 100.546 32.811 100.745 33.0094 100.546L33.6043 100.15V103.521L33.0094 103.918L32.811 104.116C32.811 104.116 32.811 104.314 33.0094 104.116L33.6043 103.719V107.091L33.0094 107.487L32.811 107.686C32.811 107.686 32.811 107.884 33.0094 107.686L33.6043 107.289V110.66L33.0094 111.057L32.811 111.255C32.811 111.255 32.811 111.454 33.0094 111.255L33.6043 110.859V114.23L33.0094 114.627L32.811 114.825C32.811 114.825 32.811 115.023 33.0094 114.825L33.6043 114.428V117.8L33.0094 118.196L32.811 118.395C32.811 118.395 32.811 118.593 33.0094 118.395L33.6043 117.998V121.568C33.6043 121.766 33.6043 121.766 33.8026 121.568L37.3723 119.585V120.18C37.3723 120.18 37.3723 120.378 37.5706 120.18L37.769 119.981V119.386L41.1403 117.403V117.998C41.1403 117.998 41.1403 118.196 41.3387 117.998L41.537 117.8V117.205L44.9084 115.222V115.817C44.9084 115.817 44.9084 116.015 45.1067 115.817L45.305 115.618V117.007L48.6764 115.023V115.618C48.6764 115.618 48.6764 115.817 48.8747 115.618L49.073 115.42V114.825L52.4444 112.842V113.437C52.4444 113.437 52.4444 113.635 52.6427 113.437L52.841 113.239V112.644L56.2124 110.66V111.255C56.2124 111.255 56.2124 111.454 56.4107 111.255L56.609 111.057V110.462L59.9804 108.479V109.074C59.9804 109.074 59.9804 109.272 60.1787 109.074L60.3771 108.876V108.281L63.7484 106.297V107.091C63.7484 107.091 63.7484 107.289 63.9468 107.091L64.1451 106.892V106.297L67.5165 104.314V105.108C67.5165 105.108 67.5165 105.306 67.7148 105.108L67.9131 104.909V104.314L71.2845 102.331V102.926C71.2845 102.926 71.2845 103.124 71.4828 102.926L71.6811 102.728V102.133L75.0525 100.15V100.745C75.0525 100.745 75.0525 100.943 75.2508 100.745L75.4491 100.546V99.9514L78.8205 97.9682V98.5631C78.8205 98.5631 78.8205 98.7615 79.0188 98.5631L79.2171 98.3648V97.7699L82.5885 95.7867V96.3816C82.5885 96.3816 82.5885 96.58 82.7868 96.3816L82.9852 96.1833V95.5884L86.3566 93.6052V94.2002C86.3566 94.2002 86.3565 94.3985 86.5549 94.2002L86.7532 94.0019V93.4069L90.1246 91.4237V92.0187C90.1246 92.0187 90.1246 92.217 90.3229 92.0187L90.5212 91.8204V91.2254L93.8926 89.2422V89.8372C93.8926 89.8372 93.8926 90.0355 94.0909 89.8372L94.2892 89.6389V89.2422L97.6606 87.2591V87.854C97.6606 87.854 97.6606 88.0523 97.8589 87.854L98.0572 87.6557V87.2591L101.429 85.2759V85.8709C101.429 85.8709 101.429 86.0692 101.627 85.8709L101.825 85.6726V85.0776L105.197 83.0944V83.6894C105.197 83.6894 105.197 83.8877 105.395 83.6894L105.593 83.4911V82.8961L108.965 80.9129V81.5079C108.965 81.5079 108.965 81.7062 109.163 81.5079L109.361 81.3096V80.7146L112.733 78.7315V79.3264C112.733 79.3264 112.733 79.5247 112.931 79.3264L113.129 79.1281V78.5331L116.501 76.55V77.3432C116.501 77.3432 116.501 77.5416 116.699 77.3432L116.897 77.1449V76.55L120.269 74.5668V75.1618C120.269 75.1618 120.269 75.3601 120.467 75.1618L120.665 74.9634V74.3685L124.037 72.3853V72.9803C124.037 72.9803 124.037 73.1786 124.235 72.9803L124.433 72.782V72.187L127.805 70.2038V70.7988C127.805 70.7988 127.805 70.9971 128.003 70.7988L128.201 70.6005V70.0055L131.573 68.0224V68.6173C131.573 68.6173 131.573 68.8156 131.771 68.6173L131.969 68.419V67.824L135.341 65.8409V66.4358C135.341 66.4358 135.341 66.6341 135.539 66.4358L135.737 66.2375V65.6426L139.109 63.6594V64.2543C139.109 64.2543 139.109 64.4527 139.307 64.2543L139.505 64.056V63.4611L142.877 61.4779V62.0729C142.877 62.0729 142.877 62.2712 143.075 62.0729L143.273 61.8745L140.894 60.4863Z" fill="#DDFFDF"/>
<path d="M141.29 17.8486C141.29 18.047 141.092 18.4436 140.695 18.6419C140.497 18.8402 140.1 18.6419 140.1 18.4436C140.1 18.2453 140.299 17.8486 140.695 17.6503C140.894 17.452 141.29 17.6503 141.29 17.8486Z" fill="#DDFFDF"/>
<path d="M141.29 31.7307C141.29 31.929 141.092 32.3256 140.695 32.5239C140.497 32.7223 140.1 32.5239 140.1 32.3256C140.1 32.1273 140.299 31.7307 140.695 31.5324C140.894 31.334 141.29 31.334 141.29 31.7307Z" fill="#DDFFDF"/>
<path d="M141.29 9.32075C141.29 9.51906 141.092 9.9157 140.695 10.114C140.497 10.3123 140.1 10.114 140.1 9.9157C140.1 9.71738 140.299 9.32075 140.695 9.12243C140.894 8.92411 141.29 9.12243 141.29 9.32075Z" fill="#DDFFDF"/>
<path d="M141.29 0.198317C141.29 0.396633 141.092 0.793267 140.695 0.991584C140.497 1.1899 140.1 0.991584 140.1 0.793267C140.1 0.59495 140.299 0.198317 140.695 0C140.894 0 141.29 0 141.29 0.198317Z" fill="#DDFFDF"/>
<path d="M37.9672 117.602C37.9672 117.8 37.7689 118.197 37.3723 118.395C37.174 118.593 36.7773 118.395 36.7773 118.197C36.7773 117.998 36.9757 117.602 37.3723 117.404C37.7689 117.404 37.9672 117.404 37.9672 117.602Z" fill="#DDFFDF"/>
<path d="M37.9672 109.868C37.9672 110.066 37.7689 110.463 37.3723 110.661C37.174 110.859 36.7773 110.661 36.7773 110.463C36.7773 110.264 36.9757 109.868 37.3723 109.669C37.7689 109.471 37.9672 109.669 37.9672 109.868Z" fill="#DDFFDF"/>
<path d="M37.9672 102.529C37.9672 102.728 37.7689 103.124 37.3723 103.323C37.174 103.521 36.7773 103.323 36.7773 103.124C36.7773 102.926 36.9757 102.529 37.3723 102.331C37.7689 102.133 37.9672 102.133 37.9672 102.529Z" fill="#DDFFDF"/>
<path d="M37.9672 91.0272C37.9672 91.2255 37.7689 91.6222 37.3723 91.8205C37.174 92.0188 36.7773 91.8205 36.7773 91.6222C36.7773 91.4239 36.9757 91.0272 37.3723 90.8289C37.7689 90.6306 37.9672 90.8289 37.9672 91.0272Z" fill="#DDFFDF"/>
<path d="M37.9672 61.4782C37.9672 61.6765 37.7689 62.0732 37.3723 62.2715C37.174 62.4698 36.7773 62.2715 36.7773 62.0732C36.7773 61.8748 36.9757 61.4782 37.3723 61.2799C37.7689 61.0816 37.9672 61.2799 37.9672 61.4782Z" fill="#DDFFDF"/>
<path d="M141.29 39.4649C141.29 39.6632 141.092 40.0598 140.695 40.2581C140.497 40.4565 140.1 40.2581 140.1 40.0598C140.1 39.8615 140.299 39.4649 140.695 39.2666C140.894 39.0682 141.29 39.0682 141.29 39.4649Z" fill="#DDFFDF"/>
<path d="M43.7185 48.1909L36.9757 52.1573V51.1657L43.7185 47.1993V48.1909Z" fill="#AFFFBC"/>
<path d="M47.6848 45.8111L44.9083 47.3977V46.6044L47.6848 45.0179V45.8111Z" fill="#AFFFBC"/>
<path d="M52.4444 43.2328L49.073 45.216V44.2244L52.4444 42.2412V43.2328Z" fill="#AFFFBC"/>
<path d="M57.6006 40.2583L53.6343 42.4398V41.4482L57.6006 39.2667V40.2583Z" fill="#AFFFBC"/>
<path d="M58.7905 38.4731V39.4647L64.9383 35.895V35.1017L58.7905 38.4731Z" fill="#AFFFBC"/>
<path d="M70.2928 32.9204L66.1282 35.3002V34.3086L70.2928 31.9288V32.9204Z" fill="#AFFFBC"/>
<path d="M80.407 26.9709L71.4828 32.1271V31.1355L80.407 26.1776V26.9709Z" fill="#AFFFBC"/>
<path d="M41.3387 52.1569L36.9757 54.5367V53.7435L41.3387 51.1653V52.1569Z" fill="#AFFFBC"/>
<path d="M45.3049 49.777L42.5284 51.3636V50.5703L45.3049 48.7855V49.777Z" fill="#AFFFBC"/>
<path d="M52.4443 45.6127L46.4948 48.9841V48.1908L52.4443 44.8195V45.6127Z" fill="#AFFFBC"/>
<path d="M60.377 41.0515L53.6343 45.0178V44.0263L60.377 40.2582V41.0515Z" fill="#AFFFBC"/>
<path d="M61.5669 39.4649V40.4565L68.3097 36.4901V35.4985L61.5669 39.4649Z" fill="#AFFFBC"/>
<path d="M72.2759 34.1104L69.4995 35.8953V34.9037L72.2759 33.3171V34.1104Z" fill="#AFFFBC"/>
<path d="M80.407 29.549L73.6642 33.5154V32.5238L80.407 28.5574V29.549Z" fill="#AFFFBC"/>
<path d="M43.7185 53.3468L36.9757 57.1148V56.3216L43.7185 52.3552V53.3468Z" fill="#AFFFBC"/>
<path d="M47.6848 50.967L44.9083 52.5535V51.5619L47.6848 49.9754V50.967Z" fill="#AFFFBC"/>
<path d="M52.4444 48.1909L49.073 50.1741V49.1825L52.4444 47.1993V48.1909Z" fill="#AFFFBC"/>
<path d="M57.6006 45.2159L53.6343 47.3974V46.6041L57.6006 44.4226V45.2159Z" fill="#AFFFBC"/>
<path d="M58.7905 43.6295V44.6211L64.9383 41.0514V40.0598L58.7905 43.6295Z" fill="#AFFFBC"/>
<path d="M70.2928 37.8785L66.1282 40.2583V39.2667L70.2928 36.8869V37.8785Z" fill="#AFFFBC"/>
<path d="M80.407 32.1273L71.4828 37.0852V36.2919L80.407 31.1357V32.1273Z" fill="#AFFFBC"/>
<defs>
<linearGradient id="paint0_linear_130_1328" x1="27.8339" y1="72.9356" x2="29.7647" y2="69.3582" gradientUnits="userSpaceOnUse">
<stop stop-color="#75CE3D"/>
<stop offset="1" stop-color="#A5F089"/>
</linearGradient>
<linearGradient id="paint1_linear_130_1328" x1="91.9723" y1="149.705" x2="95.447" y2="149.705" gradientUnits="userSpaceOnUse">
<stop stop-color="#75CE3D"/>
<stop offset="1" stop-color="#A5F089"/>
</linearGradient>
<linearGradient id="paint2_linear_130_1328" x1="29.9244" y1="130.033" x2="183.26" y2="130.033" gradientUnits="userSpaceOnUse">
<stop stop-color="#B0FFAB"/>
<stop offset="0.4557" stop-color="#C5FFC8"/>
<stop offset="1" stop-color="#DEFFE0"/>
</linearGradient>
<linearGradient id="paint3_linear_130_1328" x1="39.9849" y1="123.219" x2="151.008" y2="123.219" gradientUnits="userSpaceOnUse">
<stop stop-color="#C5FFC8"/>
<stop offset="1" stop-color="#DEFFE0"/>
</linearGradient>
</defs>
</svg>
