<svg width="183" height="188" viewBox="0 0 183 188" fill="none" xmlns="http://www.w3.org/2000/svg">
<g opacity="0.6">
<path d="M180.784 147.749C183.665 149.521 183.665 152.18 180.784 153.731L125.397 185.855C122.517 187.406 117.864 187.406 114.984 185.855L2.21541 120.941C-0.664738 119.169 -0.664738 116.51 2.21541 114.959L57.6028 82.6131C60.483 80.8407 65.1355 80.8407 68.0157 82.6131L180.784 147.749Z" fill="#155501"/>
</g>
<path d="M0 100.336V104.103C0 105.21 0.664649 106.318 2.2155 107.204L114.984 172.34C117.864 174.112 122.517 174.112 125.397 172.34L180.785 140.215C182.114 139.329 183 138.221 183 137.114V133.347L0 100.336Z" fill="url(#paint0_linear_130_1133)"/>
<path d="M180.784 130.245C183.665 132.017 183.665 134.676 180.784 136.227L125.397 168.352C122.517 169.902 117.864 169.902 114.984 168.352L2.21541 103.438C-0.664738 101.665 -0.664738 99.0065 2.21541 97.4557L57.6028 65.331C60.483 63.5586 65.1355 63.5586 68.0157 65.331L180.784 130.245Z" fill="#101910"/>
<path opacity="0.3" d="M63.5839 64.0009C61.3684 63.7794 59.3745 64.2225 57.6021 65.1087L2.21467 97.4549C-0.665471 99.0058 -0.665471 101.886 2.21467 103.437L63.5839 138.885V64.0009Z" fill="#101910"/>
<path d="M15.73 89.4797H26.1429L48.7409 76.4082V70.4264L15.73 89.4797Z" fill="#101910"/>
<path d="M157.743 152.622L151.097 156.609C150.654 156.831 150.211 156.831 150.211 156.166V155.723C150.211 155.28 150.654 154.616 151.097 154.172L157.743 150.185C158.186 149.963 158.629 149.963 158.629 150.628V151.071C158.851 151.735 158.408 152.4 157.743 152.622Z" fill="#101910"/>
<path d="M158.186 152.18L156.192 151.072L150.875 154.174C150.432 154.395 149.989 155.06 149.989 155.724V156.168C149.989 156.611 150.432 156.832 150.875 156.611L157.522 152.623C157.965 152.623 158.186 152.401 158.186 152.18Z" fill="#213320"/>
<path d="M26.5858 118.726C26.5858 118.504 26.3643 118.282 26.3643 118.282C26.3643 118.061 26.1427 118.061 25.9212 118.061L18.167 113.63C17.9454 113.408 17.7239 113.408 17.5023 113.63H17.0592C17.2808 113.63 17.5023 113.63 17.7239 113.63L25.4781 118.061C25.6996 118.061 25.6996 118.282 25.9212 118.282C26.1427 118.504 26.1427 118.504 26.1427 118.726C26.1427 118.947 26.3643 119.169 26.3643 119.39V120.498C26.3643 120.719 26.3643 120.941 26.1427 120.941L26.8074 120.498C27.0289 120.498 27.0289 120.276 27.0289 120.055V118.947C26.8074 119.169 26.8074 118.947 26.5858 118.726Z" fill="#A5F089"/>
<path d="M25.4782 118.282L17.724 113.851C17.2809 113.629 16.8378 113.851 16.8378 114.294V115.402C16.8378 115.845 17.2809 116.509 17.724 116.731L25.4782 121.162C25.9213 121.384 26.3644 121.162 26.3644 120.719V119.611C26.1429 119.168 25.9213 118.503 25.4782 118.282Z" fill="#82D853"/>
<path d="M39.657 126.258C39.657 126.036 39.4354 125.814 39.4354 125.814C39.4354 125.593 39.2139 125.593 38.9924 125.593L31.2381 121.162C31.0166 120.94 30.795 120.94 30.5735 121.162L29.9088 121.605C30.1304 121.605 30.3519 121.605 30.5735 121.605L38.3277 126.036C38.5492 126.036 38.5493 126.258 38.7708 126.258C38.9924 126.479 38.9924 126.479 38.9924 126.701C38.9924 126.922 39.2139 127.144 39.2139 127.365V128.473C39.2139 128.695 39.2139 128.916 38.9924 128.916L39.657 128.473C39.8785 128.473 39.8785 128.252 39.8785 128.03V126.922C39.8785 126.701 39.8785 126.479 39.657 126.258Z" fill="#A5F089"/>
<path d="M38.5492 125.814L30.795 121.383C30.3519 121.162 29.9088 121.383 29.9088 121.826V122.934C29.9088 123.377 30.3519 124.042 30.795 124.263L38.5492 128.694C38.9923 128.916 39.4354 128.694 39.4354 128.251V127.144C39.2138 126.7 38.9923 126.036 38.5492 125.814Z" fill="#82D853"/>
<mask id="mask0_130_1133" style="mask-type:luminance" maskUnits="userSpaceOnUse" x="0" y="64" width="183" height="106">
<path d="M180.784 130.245C183.665 132.017 183.665 134.676 180.784 136.227L125.397 168.352C122.517 169.902 117.864 169.902 114.984 168.352L2.21541 103.438C-0.664738 101.665 -0.664738 99.0065 2.21541 97.4557L57.6028 65.331C60.483 63.5586 65.1355 63.5586 68.0157 65.331L180.784 130.245Z" fill="white"/>
</mask>
<g mask="url(#mask0_130_1133)">
<g opacity="0.3">
<path d="M73.9978 131.131C73.7763 132.018 72.6685 132.461 72.447 132.018C70.6746 128.916 69.5668 107.426 66.9082 104.324C66.6867 104.102 66.2436 104.324 65.8005 104.767C64.4712 107.426 62.6988 116.066 61.3695 122.491C61.1479 123.377 59.8186 124.042 59.8186 123.377C58.9324 119.168 56.4954 111.635 55.3876 112.3C52.9506 113.629 50.0704 148.412 48.7411 152.843C48.5196 153.729 47.4118 154.173 47.1903 153.729C46.3041 152.179 43.8671 126.257 40.9869 127.808C38.993 128.916 36.999 142.874 36.1128 146.861C35.8913 147.748 34.562 148.412 34.562 147.748C32.7896 140.215 31.2387 124.263 29.2448 125.814C28.137 126.257 27.0293 136.67 26.8077 137.999C25.9215 144.646 25.0353 155.945 23.4845 160.154C23.2629 161.041 22.1552 161.484 21.9336 161.041C21.0474 159.49 20.6043 154.394 18.3888 140.658C17.7242 136.67 17.5026 133.568 16.3949 132.904V109.863L80.4227 72.8638V90.5878C78.6503 90.8094 75.5487 126.922 73.9978 131.131Z" fill="url(#paint1_linear_130_1133)"/>
</g>
</g>
<mask id="mask1_130_1133" style="mask-type:luminance" maskUnits="userSpaceOnUse" x="0" y="64" width="183" height="106">
<path d="M180.784 130.245C183.665 132.017 183.665 134.676 180.784 136.227L125.397 168.352C122.517 169.902 117.864 169.902 114.984 168.352L2.21541 103.438C-0.664738 101.665 -0.664738 99.0065 2.21541 97.4557L57.6028 65.331C60.483 63.5586 65.1355 63.5586 68.0157 65.331L180.784 130.245Z" fill="white"/>
</mask>
<g mask="url(#mask1_130_1133)">
<g opacity="0.3">
<path d="M156.635 127.143V170.788C156.635 171.896 157.3 173.003 158.629 173.668C161.51 175.219 165.941 175.219 168.821 173.668C170.15 172.782 170.815 171.896 170.815 170.788V127.143H156.635Z" fill="#3BBA00"/>
<path d="M168.599 124.042C167.491 123.377 166.162 122.934 164.611 122.934C161.509 122.712 158.629 123.598 157.078 125.149C155.749 126.7 156.192 128.694 158.408 130.023C160.18 130.91 162.174 131.353 164.611 131.131C166.826 130.91 168.82 130.245 169.928 128.916C171.479 127.365 170.814 125.371 168.599 124.042Z" fill="#6CED18"/>
<path d="M143.564 134.456V171.898C143.564 173.005 144.229 174.113 145.558 174.778C148.438 176.329 152.869 176.329 155.749 174.778C157.078 173.892 157.743 173.005 157.743 171.898V134.456H143.564Z" fill="#5400E2"/>
<path d="M155.749 131.352C154.641 130.688 153.312 130.245 151.761 130.245C148.659 130.023 145.779 130.909 144.228 132.46C142.899 134.011 143.342 136.005 145.558 137.334C147.33 138.22 149.324 138.664 151.761 138.442C153.977 138.22 155.971 137.556 157.078 136.227C158.408 134.676 157.965 132.682 155.749 131.352Z" fill="#2197FF"/>
<path d="M130.493 141.101V172.561C130.493 173.669 131.158 174.777 132.487 175.441C135.367 176.992 139.798 176.992 142.678 175.441C144.008 174.555 144.672 173.669 144.672 172.561V141.101H130.493Z" fill="#3BBA00"/>
<path d="M142.678 138.221C141.57 137.556 140.241 137.113 138.69 137.113C135.589 136.892 132.708 137.778 131.158 139.329C129.828 140.88 130.271 142.874 132.487 144.203C134.259 145.089 136.253 145.532 138.69 145.311C140.906 145.089 142.9 144.424 144.007 143.095C145.558 141.323 144.894 139.55 142.678 138.221Z" fill="#6CED18"/>
<path d="M117.421 149.076V172.56C117.421 173.668 118.085 174.776 119.415 175.44C122.295 176.991 126.726 176.991 129.606 175.44C130.935 174.554 131.6 173.668 131.6 172.56V149.076H117.421Z" fill="#86F582"/>
<path d="M129.606 146.196C128.499 145.531 127.169 145.088 125.618 145.088C122.517 144.867 119.637 145.753 118.086 147.304C116.756 148.854 117.2 150.848 119.415 152.178C121.187 153.064 123.181 153.507 125.618 153.285C127.834 153.064 129.828 152.399 130.936 151.07C132.265 149.298 131.822 147.525 129.606 146.196Z" fill="#ACFFB8"/>
<path d="M104.128 157.274V173.669C104.128 174.777 104.793 175.884 106.122 176.549C109.002 178.1 113.433 178.1 116.314 176.549C117.643 175.663 118.308 174.777 118.308 173.669V157.274H104.128Z" fill="#36CE34"/>
<path d="M116.314 154.394C115.206 153.73 113.877 153.287 112.326 153.287C109.224 153.065 106.344 153.951 104.793 155.502C103.464 157.053 104.128 159.047 106.344 160.155C108.116 161.041 110.11 161.484 112.547 161.262C114.763 161.041 116.757 160.376 117.864 159.047C119.194 157.496 118.529 155.724 116.314 154.394Z" fill="#67E86A"/>
</g>
</g>
<g opacity="0.1">
<path d="M85.7392 141.766L79.5358 145.311L78.428 144.646L84.4099 141.101L85.7392 141.766Z" fill="#AFFFBC"/>
<path d="M91.5002 138.443L87.5123 140.658L86.183 139.994L90.1709 137.778L91.5002 138.443Z" fill="#AFFFBC"/>
<path d="M101.692 132.683L93.2727 137.335L91.9434 136.671L100.362 131.797L101.692 132.683Z" fill="#AFFFBC"/>
<path d="M112.99 126.036L103.463 131.575L102.134 130.91L111.661 125.371L112.99 126.036Z" fill="#AFFFBC"/>
<path d="M113.433 124.264L114.763 125.151L124.289 119.612L122.96 118.726L113.433 124.264Z" fill="#AFFFBC"/>
<path d="M130.05 116.287L126.062 118.503L124.732 117.838L128.72 115.401L130.05 116.287Z" fill="#AFFFBC"/>
<path d="M141.349 109.64L131.822 115.179L130.493 114.514L140.02 108.975L141.349 109.64Z" fill="#AFFFBC"/>
<path d="M92.8296 141.988L83.3029 147.526L81.9736 146.64L91.5003 141.101L92.8296 141.988Z" fill="#AFFFBC"/>
<path d="M98.5898 138.443L94.6019 140.88L93.2726 139.994L97.2605 137.778L98.5898 138.443Z" fill="#AFFFBC"/>
<path d="M105.237 134.676L100.362 137.557L99.0331 136.67L103.907 134.012L105.237 134.676Z" fill="#AFFFBC"/>
<path d="M112.547 130.465L107.008 133.567L105.679 132.902L111.218 129.801L112.547 130.465Z" fill="#AFFFBC"/>
<path d="M112.99 128.694L114.32 129.58L122.96 124.485L121.631 123.599L112.99 128.694Z" fill="#AFFFBC"/>
<path d="M130.714 120.053L124.954 123.376L123.625 122.711L129.385 119.166L130.714 120.053Z" fill="#AFFFBC"/>
<path d="M145.115 111.856L132.487 118.946L131.158 118.281L143.786 110.97L145.115 111.856Z" fill="#AFFFBC"/>
<path d="M93.0507 145.976L86.8473 149.521L85.518 148.635L91.7214 145.09L93.0507 145.976Z" fill="#AFFFBC"/>
<path d="M98.8113 142.652L94.8234 144.867L93.4941 144.202L97.482 141.765L98.8113 142.652Z" fill="#AFFFBC"/>
<path d="M109.003 136.67L100.584 141.544L99.2551 140.88L107.674 136.006L109.003 136.67Z" fill="#AFFFBC"/>
<path d="M120.08 130.245L110.775 135.784L109.446 134.898L118.751 129.581L120.08 130.245Z" fill="#AFFFBC"/>
<path d="M120.745 128.474L121.853 129.139L131.379 123.821L130.05 122.935L120.745 128.474Z" fill="#AFFFBC"/>
<path d="M137.139 120.496L133.151 122.712L131.822 122.047L135.81 119.61L137.139 120.496Z" fill="#AFFFBC"/>
<path d="M148.659 113.851L138.911 119.39L137.582 118.725L147.33 112.965L148.659 113.851Z" fill="#AFFFBC"/>
<path d="M99.9186 145.975L90.3919 151.514L89.0626 150.849L98.5893 145.311L99.9186 145.975Z" fill="#AFFFBC"/>
<path d="M105.901 142.652L101.913 145.089L100.583 144.203L104.571 141.988L105.901 142.652Z" fill="#AFFFBC"/>
<path d="M112.547 138.886L107.673 141.766L106.344 140.88L111.218 138L112.547 138.886Z" fill="#AFFFBC"/>
<path d="M119.637 134.676L114.32 137.778L112.99 137.113L118.308 134.012L119.637 134.676Z" fill="#AFFFBC"/>
<path d="M120.08 132.903L121.409 133.568L130.271 128.694L128.942 127.808L120.08 132.903Z" fill="#AFFFBC"/>
<path d="M138.026 124.264L132.044 127.587L130.715 126.701L136.696 123.378L138.026 124.264Z" fill="#AFFFBC"/>
<path d="M152.205 115.845L139.798 123.156L138.469 122.27L150.875 115.18L152.205 115.845Z" fill="#AFFFBC"/>
<path d="M41.4301 116.066L35.2268 119.611L33.8975 118.946L40.1009 115.401L41.4301 116.066Z" fill="#AFFFBC"/>
<path d="M47.19 112.742L43.2021 115.179L41.8728 114.293L45.8607 112.077L47.19 112.742Z" fill="#AFFFBC"/>
<path d="M57.1594 106.982L48.9621 111.856L47.6328 110.97L55.8301 106.096L57.1594 106.982Z" fill="#AFFFBC"/>
<path d="M68.4591 100.336L59.154 105.875L57.8247 105.21L67.1298 99.6716L68.4591 100.336Z" fill="#AFFFBC"/>
<path d="M68.9019 98.5631L70.2312 99.4493L79.7578 93.9106L78.4285 93.2459L68.9019 98.5631Z" fill="#AFFFBC"/>
<path d="M85.5181 90.5876L81.5302 92.8031L80.2009 92.1385L84.1888 89.923L85.5181 90.5876Z" fill="#AFFFBC"/>
<path d="M97.0385 83.9417L87.2904 89.4805L85.9611 88.8158L95.7092 83.2771L97.0385 83.9417Z" fill="#AFFFBC"/>
<path d="M48.2979 116.287L38.7713 121.826L37.442 120.94L46.9687 115.401L48.2979 116.287Z" fill="#AFFFBC"/>
<path d="M54.2801 112.963L50.0706 115.179L48.7413 114.514L52.9508 112.077L54.2801 112.963Z" fill="#AFFFBC"/>
<path d="M60.9261 108.977L56.052 111.857L54.7227 111.192L59.5968 108.312L60.9261 108.977Z" fill="#AFFFBC"/>
<path d="M68.0161 104.767L62.6989 108.09L61.3696 107.204L66.6868 104.102L68.0161 104.767Z" fill="#AFFFBC"/>
<path d="M68.4587 102.995L69.788 103.881L78.65 98.7856L77.3207 98.121L68.4587 102.995Z" fill="#AFFFBC"/>
<path d="M86.4039 94.3534L80.4221 97.6767L79.0928 97.012L85.0746 93.6888L86.4039 94.3534Z" fill="#AFFFBC"/>
<path d="M100.584 86.1563L88.177 93.2459L86.8477 92.5812L99.2545 85.2701L100.584 86.1563Z" fill="#AFFFBC"/>
<path d="M72.2247 125.149L52.9499 123.377C53.6145 120.94 55.3869 118.946 58.4886 117.173L72.2247 125.149Z" fill="#87F684"/>
<path d="M72.2258 125.15L63.3638 135.12C55.6096 132.905 51.6217 128.252 52.951 123.378L72.2258 125.15Z" fill="#AFFFBC"/>
<path d="M72.2248 125.148L85.9609 133.124C79.7575 136.669 70.8955 137.555 63.3628 135.118L72.2248 125.148Z" fill="#C4DEFE"/>
<path d="M72.2258 125.15L91.5006 123.378C92.6083 127.144 90.6144 130.468 85.9618 133.126L72.2258 125.15Z" fill="#D5BCFF"/>
<path d="M72.2258 125.15L81.0878 115.18C86.848 116.953 90.3928 119.833 91.5006 123.378L72.2258 125.15Z" fill="#40A31A"/>
<path d="M72.2248 125.148L58.4887 117.173C64.6921 113.628 73.5541 112.742 81.0868 115.179L72.2248 125.148Z" fill="#55CC2D"/>
<path d="M106.344 105.432L112.99 116.067C109.002 116.953 105.014 116.953 100.805 116.288L106.344 105.432Z" fill="#87F684"/>
<path d="M106.343 105.432L125.175 108.534C123.403 112.079 118.972 114.738 112.99 116.067L106.343 105.432Z" fill="#AFFFBC"/>
<path d="M106.344 105.432L100.805 116.288C90.392 114.516 84.4102 108.312 87.5118 102.109C90.6135 96.1269 101.469 92.5821 111.882 94.3545C116.092 95.0192 119.193 96.3485 121.852 98.3424L106.344 105.432Z" fill="#55CC2D"/>
<path d="M106.343 105.433L121.852 98.5645C125.84 101.445 126.947 104.989 125.175 108.756L106.343 105.433Z" fill="#C4DEFE"/>
</g>
<path d="M73.9977 21.0203C73.7762 20.5772 72.6684 21.0203 72.4469 21.9065C70.6745 27.2237 69.5667 49.8217 66.9081 56.0251C66.6866 56.4682 66.2435 56.9113 65.8004 56.6898C64.4711 55.582 62.6987 49.1571 61.3694 44.0614C61.1479 43.3968 59.8186 44.283 59.8186 44.9476C58.9324 50.0433 56.4953 60.6777 55.3876 61.3423C52.9505 62.6716 50.0704 31.4331 48.7411 28.553C48.5195 27.8883 47.4118 28.553 47.1902 29.4392C46.304 32.0977 43.867 60.6777 40.9868 62.45C38.9929 63.5578 36.9989 52.0372 36.1127 48.9355C35.8912 48.2709 34.5619 49.1571 34.5619 49.8217C32.3464 59.7915 30.7955 77.5154 28.8016 78.1801C27.6939 79.2878 26.5861 70.2043 26.3646 68.875C25.4784 63.1147 24.5922 52.9234 23.0413 50.7079C22.8198 50.2648 21.712 50.7079 21.4905 51.5941C20.6043 54.2527 20.1612 59.7915 17.9457 75.9646C17.281 80.6171 17.0595 84.1619 15.9517 85.9343V109.64L79.9796 72.6413V54.9174C78.6503 56.0251 75.5486 23.4573 73.9977 21.0203Z" fill="url(#paint2_linear_130_1133)"/>
<path d="M15.73 37.6376V37.8591L79.9794 0.860344V0.638794L15.73 37.6376Z" fill="#DDFFDF"/>
<path d="M15.7301 43.8415L79.9795 6.8427V6.62115L15.7301 43.6199V43.8415Z" fill="#DDFFDF"/>
<path d="M15.7301 103.66V103.881L79.9795 66.8827V66.6611L15.7301 103.66Z" fill="#DDFFDF"/>
<path d="M15.7301 109.863L79.9795 72.8641V72.6425L15.7301 109.641V109.863Z" fill="#DDFFDF"/>
<path d="M15.7301 49.8234L79.9795 12.8246V12.603L15.7301 49.6018V49.8234Z" fill="#DDFFDF"/>
<path d="M15.7301 56.0259L79.9795 19.0272V18.8056L15.7301 55.8044V56.0259Z" fill="#DDFFDF"/>
<path d="M15.7301 62.0083L79.9795 25.0095V24.788L15.7301 61.7868V62.0083Z" fill="#DDFFDF"/>
<path d="M15.7301 67.9892L79.9795 30.9904V30.7689L15.7301 67.7676V67.9892Z" fill="#DDFFDF"/>
<path d="M15.7301 73.9711L79.9795 36.9723V36.7507L15.7301 73.7495V73.9711Z" fill="#DDFFDF"/>
<path d="M15.7301 79.9529L79.9795 42.9542V42.7326L15.7301 79.7314V79.9529Z" fill="#DDFFDF"/>
<path d="M15.7301 86.158L79.9795 49.1592V48.9376L15.7301 85.9364V86.158Z" fill="#DDFFDF"/>
<path d="M15.7301 92.1379L79.9795 55.1391V54.9175L15.7301 91.9163V92.1379Z" fill="#DDFFDF"/>
<path d="M15.7301 98.1202L79.9795 61.1214V60.8999L15.7301 97.8987V98.1202Z" fill="#DDFFDF"/>
<path d="M50.957 35.6442C50.957 36.0873 50.5139 36.752 50.0708 36.9735C49.6277 37.1951 49.1846 36.9735 49.1846 36.5304C49.1846 36.0873 49.6277 35.4227 50.0708 35.2011C50.5139 34.9796 50.957 35.2011 50.957 35.6442Z" fill="#DDFFDF"/>
<path d="M34.7839 50.9309C34.7839 51.374 34.3408 52.0386 33.8977 52.2602C33.4546 52.4817 33.0115 52.2602 33.0115 51.8171C33.0115 51.374 33.4546 50.7093 33.8977 50.4878C34.3408 50.4878 34.7839 50.4878 34.7839 50.9309Z" fill="#DDFFDF"/>
<path d="M24.1496 50.9309C24.1496 51.374 23.7065 52.0386 23.2634 52.2602C22.8203 52.4817 22.3772 52.2602 22.3772 51.8171C22.3772 51.374 22.8203 50.7093 23.2634 50.4878C23.7065 50.4878 24.1496 50.4878 24.1496 50.9309Z" fill="#DDFFDF"/>
<path d="M62.9207 46.9425C62.9207 47.3856 62.4776 48.0502 62.0345 48.2718C61.5914 48.4933 61.1483 48.2718 61.1483 47.8287C61.1483 47.3856 61.5914 46.7209 62.0345 46.4994C62.4776 46.2778 62.9207 46.4994 62.9207 46.9425Z" fill="#DDFFDF"/>
<path d="M75.1054 21.6852C75.1054 22.1283 74.6623 22.793 74.2192 23.0145C73.7761 23.2361 73.333 23.0145 73.333 22.5714C73.333 22.1283 73.7761 21.4637 74.2192 21.2421C74.8839 21.0206 75.1054 21.0206 75.1054 21.6852Z" fill="#DDFFDF"/>
<path d="M85.7392 126.036L79.5358 129.581L78.428 128.916L84.4099 125.371L85.7392 126.036Z" fill="#AFFFBC"/>
<path d="M91.5002 122.713L87.5123 125.15L86.183 124.264L90.1709 122.048L91.5002 122.713Z" fill="#AFFFBC"/>
<path d="M101.692 116.953L93.2727 121.827L91.9434 120.941L100.362 116.067L101.692 116.953Z" fill="#AFFFBC"/>
<path d="M112.99 110.528L103.463 115.845L102.134 115.18L111.661 109.641L112.99 110.528Z" fill="#AFFFBC"/>
<path d="M113.433 108.534L114.763 109.42L124.289 103.881L122.96 103.217L113.433 108.534Z" fill="#AFFFBC"/>
<path d="M130.05 100.558L126.062 102.773L124.732 102.109L128.72 99.8933L130.05 100.558Z" fill="#AFFFBC"/>
<path d="M141.349 93.9106L131.822 99.6709L130.493 98.7847L140.02 93.2459L141.349 93.9106Z" fill="#AFFFBC"/>
<path d="M92.8296 126.258L83.3029 131.796L81.9736 130.91L91.5003 125.371L92.8296 126.258Z" fill="#AFFFBC"/>
<path d="M98.5898 122.934L94.6019 125.15L93.2726 124.485L97.2605 122.048L98.5898 122.934Z" fill="#AFFFBC"/>
<path d="M105.237 118.947L100.362 121.827L99.0331 121.162L103.907 118.282L105.237 118.947Z" fill="#AFFFBC"/>
<path d="M112.547 114.736L107.008 118.059L105.679 117.173L111.218 114.071L112.547 114.736Z" fill="#AFFFBC"/>
<path d="M112.99 112.966L114.32 113.852L122.96 108.756L121.631 108.092L112.99 112.966Z" fill="#AFFFBC"/>
<path d="M130.714 104.324L124.954 107.647L123.625 106.982L129.385 103.659L130.714 104.324Z" fill="#AFFFBC"/>
<path d="M145.115 96.1266L132.487 103.216L131.158 102.551L143.786 95.2404L145.115 96.1266Z" fill="#AFFFBC"/>
<path d="M93.0507 130.245L86.8473 133.79L85.518 133.125L91.7214 129.581L93.0507 130.245Z" fill="#AFFFBC"/>
<path d="M98.8113 126.922L94.8234 129.137L93.4941 128.473L97.482 126.257L98.8113 126.922Z" fill="#AFFFBC"/>
<path d="M109.003 121.162L100.584 125.814L99.2551 125.15L107.674 120.276L109.003 121.162Z" fill="#AFFFBC"/>
<path d="M120.08 114.516L110.775 120.054L109.446 119.39L118.751 113.851L120.08 114.516Z" fill="#AFFFBC"/>
<path d="M120.745 112.743L121.853 113.63L131.379 108.091L130.05 107.205L120.745 112.743Z" fill="#AFFFBC"/>
<path d="M137.139 104.766L133.151 106.982L131.822 106.317L135.81 103.88L137.139 104.766Z" fill="#AFFFBC"/>
<path d="M148.659 98.1221L138.911 103.661L137.582 102.996L147.33 97.4575L148.659 98.1221Z" fill="#AFFFBC"/>
<path d="M99.9186 130.467L90.3919 136.005L89.0626 135.119L98.5893 129.581L99.9186 130.467Z" fill="#AFFFBC"/>
<path d="M105.901 126.922L101.913 129.359L100.583 128.473L104.571 126.257L105.901 126.922Z" fill="#AFFFBC"/>
<path d="M112.547 123.156L107.673 126.036L106.344 125.15L111.218 122.491L112.547 123.156Z" fill="#AFFFBC"/>
<path d="M119.637 118.947L114.32 122.049L112.99 121.384L118.308 118.282L119.637 118.947Z" fill="#AFFFBC"/>
<path d="M120.08 117.173L121.409 118.059L130.271 112.963L128.942 112.077L120.08 117.173Z" fill="#AFFFBC"/>
<path d="M138.026 108.535L132.044 111.858L130.715 111.193L136.696 107.648L138.026 108.535Z" fill="#AFFFBC"/>
<path d="M152.205 100.336L139.798 107.426L138.469 106.761L150.875 99.45L152.205 100.336Z" fill="#AFFFBC"/>
<path d="M41.4301 100.558L35.2268 104.103L33.8975 103.216L40.1009 99.6716L41.4301 100.558Z" fill="#AFFFBC"/>
<path d="M47.19 97.0124L43.2021 99.4494L41.8728 98.5632L45.8607 96.3477L47.19 97.0124Z" fill="#AFFFBC"/>
<path d="M57.1594 91.2536L48.9621 96.1277L47.6328 95.2415L55.8301 90.589L57.1594 91.2536Z" fill="#AFFFBC"/>
<path d="M68.4591 84.8278L59.154 90.3665L57.8247 89.4803L67.1298 83.9416L68.4591 84.8278Z" fill="#AFFFBC"/>
<path d="M68.9019 83.0542L70.2312 83.7188L79.7578 78.1801L78.4285 77.5154L68.9019 83.0542Z" fill="#AFFFBC"/>
<path d="M85.5181 74.8581L81.5302 77.2952L80.2009 76.409L84.1888 74.1935L85.5181 74.8581Z" fill="#AFFFBC"/>
<path d="M97.0385 68.4338L87.2904 73.9725L85.9611 73.0863L95.7092 67.5476L97.0385 68.4338Z" fill="#AFFFBC"/>
<path d="M48.2979 100.558L38.7713 106.097L37.442 105.432L46.9687 99.8933L48.2979 100.558Z" fill="#AFFFBC"/>
<path d="M54.2801 97.2339L50.0706 99.4494L48.7413 98.7848L52.9508 96.3477L54.2801 97.2339Z" fill="#AFFFBC"/>
<path d="M60.9261 93.4681L56.052 96.1267L54.7227 95.4621L59.5968 92.5819L60.9261 93.4681Z" fill="#AFFFBC"/>
<path d="M68.0161 89.2591L62.6989 92.3608L61.3696 91.4746L66.6868 88.3729L68.0161 89.2591Z" fill="#AFFFBC"/>
<path d="M68.4587 87.4866L69.788 88.1513L78.65 83.0556L77.3207 82.391L68.4587 87.4866Z" fill="#AFFFBC"/>
<path d="M86.4039 78.6239L80.4221 82.1687L79.0928 81.2825L85.0746 77.9592L86.4039 78.6239Z" fill="#AFFFBC"/>
<path d="M100.584 70.4278L88.177 77.739L86.8477 76.8528L99.2545 69.7632L100.584 70.4278Z" fill="#AFFFBC"/>
<path d="M72.2247 109.419L52.9499 107.646C53.6145 105.209 55.3869 103.215 58.4886 101.443L72.2247 109.419Z" fill="#87F684"/>
<path d="M72.2258 109.421L63.3638 119.391C55.6096 117.175 51.6217 112.522 52.951 107.648L72.2258 109.421Z" fill="#AFFFBC"/>
<path d="M72.2248 109.419L85.9609 117.394C79.7575 120.939 70.8955 121.825 63.3628 119.388L72.2248 109.419Z" fill="#C4DEFE"/>
<path d="M72.2258 109.421L91.5006 107.648C92.6083 111.415 90.6144 114.738 85.9618 117.397L72.2258 109.421Z" fill="#D5BCFF"/>
<path d="M72.2258 109.42L81.0878 99.4499C86.848 101.222 90.3928 104.102 91.5006 107.647L72.2258 109.42Z" fill="#40A31A"/>
<path d="M72.2248 109.418L58.4887 101.443C64.6921 97.8978 73.5541 97.0116 81.0868 99.4486L72.2248 109.418Z" fill="#55CC2D"/>
<path d="M106.344 89.702L112.99 100.336C109.002 101.223 105.014 101.223 100.805 100.558L106.344 89.702Z" fill="#87F684"/>
<path d="M106.343 89.702L125.175 92.8037C123.403 96.3484 118.972 99.007 112.99 100.336L106.343 89.702Z" fill="#AFFFBC"/>
<path d="M106.344 89.702L100.805 100.558C90.392 98.7855 84.4102 92.5821 87.5118 86.3787C90.6135 80.3969 101.469 76.8521 111.882 78.6245C116.092 79.2891 119.193 80.6184 121.852 82.6124L106.344 89.702Z" fill="#55CC2D"/>
<path d="M106.343 89.7025L121.852 82.8344C125.84 85.7146 126.947 89.2594 125.175 93.0257L106.343 89.7025Z" fill="#C4DEFE"/>
<path d="M156.636 83.7197V127.365C156.636 128.473 157.301 129.58 158.63 130.245C161.51 131.796 165.941 131.796 168.821 130.245C170.151 129.359 170.815 128.473 170.815 127.365V83.7197H156.636Z" fill="#3BBA00"/>
<path d="M168.599 80.8398C167.492 80.1752 166.162 79.7321 164.611 79.7321C161.51 79.5105 158.63 80.3967 157.079 81.9475C155.749 83.4984 156.193 85.4923 158.408 86.8216C160.18 87.7078 162.174 88.1509 164.611 87.9294C166.827 87.7078 168.821 87.0432 169.929 85.7139C171.479 83.9415 170.815 81.9475 168.599 80.8398Z" fill="#6CED18"/>
<path d="M143.564 97.2333V134.675C143.564 135.783 144.228 136.891 145.558 137.555C148.438 139.106 152.869 139.106 155.749 137.555C157.078 136.669 157.743 135.783 157.743 134.675V97.4548L143.564 97.2333Z" fill="#5400E2"/>
<path d="M155.749 94.3537C154.641 93.6891 153.312 93.246 151.761 93.246C148.659 93.0244 145.779 93.9106 144.228 95.4615C142.899 97.0123 143.342 99.0063 145.558 100.336C147.33 101.222 149.324 101.665 151.761 101.443C153.977 101.222 155.97 100.557 157.078 99.2278C158.408 97.677 157.964 95.683 155.749 94.3537Z" fill="#2197FF"/>
<path d="M130.493 110.748V142.43C130.493 143.537 131.158 144.645 132.487 145.31C135.367 146.861 139.798 146.861 142.678 145.31C144.007 144.423 144.672 143.537 144.672 142.43V110.969L130.493 110.748Z" fill="#3BBA00"/>
<path d="M142.678 107.868C141.571 107.203 140.241 106.76 138.69 106.76C135.589 106.539 132.709 107.425 131.158 108.976C129.828 110.527 130.272 112.521 132.487 113.85C134.259 114.736 136.253 115.179 138.69 114.958C140.906 114.736 142.9 114.072 144.008 112.742C145.558 110.97 144.894 109.197 142.678 107.868Z" fill="#6CED18"/>
<path d="M117.421 126.479V149.963C117.421 151.071 118.086 152.178 119.415 152.843C122.295 154.394 126.726 154.394 129.606 152.843C130.936 151.957 131.6 151.071 131.6 149.963V126.479H117.421Z" fill="#86F582"/>
<path d="M129.607 123.377C128.499 122.712 127.169 122.269 125.619 122.269C122.517 122.048 119.637 122.934 118.086 124.485C116.757 126.036 117.2 128.03 119.415 129.359C121.188 130.245 123.182 130.688 125.619 130.467C127.834 130.245 129.828 129.58 130.936 128.251C132.265 126.7 131.822 124.706 129.607 123.377Z" fill="#ACFFB8"/>
<path d="M104.128 141.101V157.496C104.128 158.603 104.793 159.711 106.122 160.376C109.003 161.926 113.434 161.926 116.314 160.376C117.643 159.489 118.308 158.603 118.308 157.496V141.101H104.128Z" fill="#36CE34"/>
<path d="M116.314 138.221C115.206 137.556 113.877 137.113 112.326 137.113C109.224 136.892 106.344 137.778 104.793 139.329C103.464 140.879 103.907 142.873 106.122 144.203C107.895 145.089 109.889 145.532 112.326 145.31C114.541 145.089 116.535 144.424 117.643 143.095C119.194 141.323 118.529 139.55 116.314 138.221Z" fill="#67E86A"/>
<defs>
<linearGradient id="paint0_linear_130_1133" x1="0" y1="136.936" x2="182.881" y2="136.936" gradientUnits="userSpaceOnUse">
<stop stop-color="#75CE3D"/>
<stop offset="1" stop-color="#A5F089"/>
</linearGradient>
<linearGradient id="paint1_linear_130_1133" x1="47.8468" y1="153.633" x2="20.975" y2="107.094" gradientUnits="userSpaceOnUse">
<stop stop-color="#568EFF"/>
<stop offset="1" stop-color="#4BFF3D"/>
</linearGradient>
<linearGradient id="paint2_linear_130_1133" x1="47.8467" y1="28.8644" x2="74.7184" y2="75.4036" gradientUnits="userSpaceOnUse">
<stop stop-color="#568EFF"/>
<stop offset="1" stop-color="#4BFF3D"/>
</linearGradient>
</defs>
</svg>
