<svg width="151" height="168" viewBox="0 0 151 168" fill="none" xmlns="http://www.w3.org/2000/svg">
<path d="M124.518 73.9873C124.341 73.8099 124.341 73.8099 124.164 73.8099L120.803 74.1646C120.627 74.1646 120.45 74.3419 120.45 74.5192C120.45 74.6965 120.45 74.6965 120.45 74.8739L120.627 75.0512L121.334 75.4058L1.93553 144.383C1.93553 144.738 2.11242 145.093 2.11242 145.447L122.042 76.1151L123.103 76.8244C123.28 76.8244 123.457 76.8244 123.457 76.8244C123.634 76.8244 123.634 76.6471 123.811 76.4697L124.518 74.5192C124.518 74.1646 124.518 73.9873 124.518 73.9873Z" fill="#DDFFDF"/>
<path d="M104.176 39.4098L98.5157 39.5871C97.4544 39.5871 96.3931 40.2964 95.3318 41.183L84.011 52.5315C83.3035 53.2408 82.5959 53.7728 81.7115 53.9501L71.6289 57.4965C70.7445 57.8511 69.8601 58.5604 68.9756 59.447L55.886 74.3419C55.0016 75.2285 54.1171 75.9378 53.2327 76.2925L40.32 80.7255C39.4355 81.0801 38.728 81.6121 38.0204 82.3214L28.1148 92.6059C27.2303 93.4925 26.169 94.2018 25.1077 94.3791L14.6714 96.1523C13.4332 96.3297 12.195 97.2163 11.1336 98.6348L1.93553 110.87V144.915L119.211 77.0017V32.4943L112.667 33.7356C111.782 33.9129 110.898 34.4448 110.013 35.3314L107.36 37.8139C106.299 38.7005 105.237 39.4098 104.176 39.4098Z" fill="url(#paint0_linear_130_1062)"/>
<path d="M116.204 51.8223L110.898 57.4965C109.836 58.5604 108.775 59.2697 107.714 59.4471L91.2634 61.5749C90.3789 61.7522 89.4945 62.1069 88.6101 62.9935L78.3506 72.2141C77.6431 72.7461 76.9355 73.278 76.228 73.4554L63.3153 77.5337C62.4308 77.8884 61.3695 78.5976 60.4851 79.4842L47.3954 94.7338C46.6879 95.6204 45.8035 96.1524 45.0959 96.507L35.0134 100.94C34.3058 101.295 33.5983 101.827 32.8907 102.536L21.3931 114.416C20.5086 115.303 19.6242 116.012 18.5629 116.19L9.011 118.672V123.814V148.994L126.287 81.0801V48.4532L119.035 49.8717C118.15 50.0491 117.089 50.7583 116.204 51.8223Z" fill="url(#paint1_linear_130_1062)"/>
<path d="M124.518 62.1068L118.681 67.2491C117.796 67.9584 116.912 68.4904 116.028 68.6677L110.367 69.377C109.483 69.5543 108.421 70.0862 107.537 70.9728L99.577 78.4203C98.6926 79.3069 97.6313 79.8389 96.7468 80.0162L87.195 80.9028C86.1336 81.0801 84.8954 81.7894 83.8341 83.0306L66.4992 102.536C65.4379 103.777 64.1997 104.486 63.1384 104.664L56.2398 105.373C55.1785 105.55 54.1171 106.082 53.0558 107.324L40.4968 120.623C39.4355 121.686 38.1973 122.396 37.136 122.573L29.7068 123.105C28.8223 123.105 27.761 123.637 26.8766 124.524L17.3247 133.212V153.781L134.601 85.8678V58.7377L126.994 60.6883C126.11 60.8656 125.226 61.3975 124.518 62.1068Z" fill="url(#paint2_linear_130_1062)"/>
<path d="M132.124 82.1441L126.287 87.2863C125.402 88.1729 124.341 88.5276 123.634 88.7049L118.15 89.2369C117.089 89.4142 116.027 89.9461 114.966 91.0101L110.19 95.975C109.129 97.2163 107.714 97.9256 106.653 97.9256L94.6242 97.3936C93.386 97.3936 91.9709 98.1029 90.9096 99.5214L77.2893 115.126C76.228 116.367 74.8129 117.076 73.7516 117.253L63.669 117.785C62.6077 117.785 61.5464 118.495 60.485 119.559L47.7492 132.68C46.8648 133.567 45.8034 134.276 44.7421 134.454L37.136 135.695C36.2516 135.872 35.3671 136.404 34.4827 137.113L24.7539 145.979V158.037L142.03 90.1235V78.775L134.424 80.9028C133.539 81.0801 132.832 81.4348 132.124 82.1441Z" fill="url(#paint3_linear_130_1062)"/>
<path d="M139.023 96.8616L134.954 99.6988C133.716 100.585 132.478 101.295 131.24 101.649L127.171 103.068C125.579 103.6 123.987 104.486 122.572 105.728L119.035 108.565C117.619 109.806 116.028 110.693 114.436 111.225L103.292 115.126C101.877 115.658 100.461 116.367 99.0464 117.431L86.3105 127.361C84.7185 128.602 82.9497 129.489 81.3577 130.021L73.5747 132.148C71.8058 132.68 70.0369 133.567 68.2681 134.986L56.9473 144.206C55.3553 145.625 53.5865 146.511 51.8176 147.043L47.5723 148.285C45.4497 148.817 43.1502 150.235 41.2044 152.363L32.8907 160.342V162.47L150.167 94.5565V92.7833L143.622 94.2018C142.207 94.9111 140.615 95.6204 139.023 96.8616Z" fill="url(#paint4_linear_130_1062)"/>
<path d="M38.1973 165.485L2.46618 144.738V58.2058C2.46618 58.0285 2.2893 57.6738 1.93552 57.6738C1.58175 57.6738 1.40486 57.8511 1.40486 58.2058V145.093C1.40486 145.27 1.58175 145.447 1.58175 145.447L37.4898 166.194H37.6666C37.8435 166.194 38.0204 166.194 38.0204 166.017C38.5511 165.839 38.5511 165.662 38.1973 165.485Z" fill="#DDFFDF"/>
<path d="M3.70439 57.6738L2.2893 56.078C2.11241 55.9006 1.93552 55.9006 1.93552 55.9006C1.75864 55.9006 1.58175 56.078 1.58175 56.2553L0.166656 59.447C0.166656 59.6244 0.166656 59.8017 0.343543 59.979C0.52043 59.979 0.52043 60.1563 0.697317 60.1563H0.874204L3.70439 58.3831C3.88128 58.3831 3.88128 58.2058 3.88128 58.0285C3.88128 57.8512 3.88128 57.8512 3.70439 57.6738Z" fill="#DDFFDF"/>
<path d="M40.1431 166.726L39.7893 164.598C39.7893 164.421 39.6124 164.243 39.4355 164.243C39.2586 164.243 39.0818 164.243 38.9049 164.243L36.0747 166.371C35.8978 166.549 35.8978 166.726 35.8978 166.903C35.8978 167.081 36.0747 167.081 36.0747 167.081H36.2516H39.4355C39.6124 167.081 39.7893 167.081 39.7893 166.903C40.1431 167.081 40.1431 166.903 40.1431 166.726Z" fill="#DDFFDF"/>
<path d="M13.4332 58.915L7.24213 62.4614V61.2202L13.4332 57.4965V58.915Z" fill="#AFFFBC"/>
<path d="M19.2704 55.5459L15.202 57.8511V56.6099L19.2704 54.1274V55.5459Z" fill="#AFFFBC"/>
<path d="M29.5299 49.6944L21.0393 54.482V53.2408L29.5299 48.2758V49.6944Z" fill="#AFFFBC"/>
<path d="M40.8506 43.1335L31.2987 48.6305V47.2119L40.8506 41.715V43.1335Z" fill="#AFFFBC"/>
<path d="M42.6195 40.651V42.0696L52.1714 36.5727V35.1541L42.6195 40.651Z" fill="#AFFFBC"/>
<path d="M58.0086 33.2036L53.9402 35.5088V34.0902L58.0086 31.785V33.2036Z" fill="#AFFFBC"/>
<path d="M69.5063 26.4654L59.7775 32.1397V30.7211L69.5063 25.2242V26.4654Z" fill="#AFFFBC"/>
<path d="M16.9709 60.511L7.24213 66.1852V64.7666L16.9709 59.2697V60.511Z" fill="#AFFFBC"/>
<path d="M22.8082 57.1419L18.7398 59.447V58.2058L22.8082 55.9006V57.1419Z" fill="#AFFFBC"/>
<path d="M29.5299 53.2408L24.577 56.0779V54.8367L29.5299 51.9996V53.2408Z" fill="#AFFFBC"/>
<path d="M36.7822 49.1625L31.2987 52.1769V50.9357L36.7822 47.7439V49.1625Z" fill="#AFFFBC"/>
<path d="M38.5511 46.68V48.0985L47.3954 42.9562V41.5377L38.5511 46.68Z" fill="#AFFFBC"/>
<path d="M55.0016 38.5232L49.1643 41.8923V40.6511L55.0016 37.1047V38.5232Z" fill="#AFFFBC"/>
<path d="M69.5063 30.1891L56.7704 37.4593V36.0407L69.5063 28.7706V30.1891Z" fill="#AFFFBC"/>
<path d="M13.4332 66.1852L7.24213 69.7316V68.4903L13.4332 64.7666V66.1852Z" fill="#AFFFBC"/>
<path d="M19.2704 62.8161L15.202 65.1212V63.88L19.2704 61.3975V62.8161Z" fill="#AFFFBC"/>
<path d="M29.5299 56.9645L21.0393 61.7522V60.5109L29.5299 55.546V56.9645Z" fill="#AFFFBC"/>
<path d="M40.8506 50.4037L31.2987 55.9006V54.482L40.8506 48.9851V50.4037Z" fill="#AFFFBC"/>
<path d="M42.6195 47.9212V49.3398L52.1714 43.8428V42.4243L42.6195 47.9212Z" fill="#AFFFBC"/>
<path d="M58.0086 40.4737L53.9402 42.7789V41.3603L58.0086 39.0552V40.4737Z" fill="#AFFFBC"/>
<path d="M69.5063 33.7356L59.7775 39.4098V37.9913L69.5063 32.4943V33.7356Z" fill="#AFFFBC"/>
<path d="M16.9709 67.7811L7.24213 73.4553V72.0368L16.9709 66.5399V67.7811Z" fill="#AFFFBC"/>
<path d="M22.8082 64.412L18.7398 66.7171V65.4759L22.8082 63.1707V64.412Z" fill="#AFFFBC"/>
<path d="M29.5299 60.511L24.577 63.3481V62.1068L29.5299 59.2697V60.511Z" fill="#AFFFBC"/>
<path d="M36.7822 56.4325L31.2987 59.447V58.2057L36.7822 55.014V56.4325Z" fill="#AFFFBC"/>
<path d="M38.5511 53.9501V55.3687L47.3954 50.2264V48.8078L38.5511 53.9501Z" fill="#AFFFBC"/>
<path d="M55.0016 45.7933L49.1643 49.1624V47.9212L55.0016 44.3748V45.7933Z" fill="#AFFFBC"/>
<path d="M69.5063 37.4593L56.7704 44.7294V43.3108L69.5063 36.0407V37.4593Z" fill="#AFFFBC"/>
<path d="M13.4332 73.4553L7.24213 77.0017V75.7605L13.4332 72.0367V73.4553Z" fill="#AFFFBC"/>
<path d="M19.2704 70.0862L15.202 72.3914V71.1502L19.2704 68.6677V70.0862Z" fill="#AFFFBC"/>
<path d="M29.5299 64.2347L21.0393 69.0223V67.7811L29.5299 62.8161V64.2347Z" fill="#AFFFBC"/>
<path d="M40.8506 57.6738L31.2987 63.1707V61.7522L40.8506 56.2552V57.6738Z" fill="#AFFFBC"/>
<path d="M42.6195 55.1913V56.6099L52.1714 51.113V49.6944L42.6195 55.1913Z" fill="#AFFFBC"/>
<path d="M58.0086 47.7439L53.9402 50.049V48.6305L58.0086 46.3253V47.7439Z" fill="#AFFFBC"/>
<path d="M69.5063 41.0057L59.7775 46.68V45.2614L69.5063 39.7645V41.0057Z" fill="#AFFFBC"/>
<path d="M16.9709 75.0512L7.24213 80.7254V79.3069L16.9709 73.8099V75.0512Z" fill="#AFFFBC"/>
<path d="M22.8082 71.6821L18.7398 73.9873V72.746L22.8082 70.4409V71.6821Z" fill="#AFFFBC"/>
<path d="M29.5299 67.7811L24.577 70.6182V69.377L29.5299 66.5399V67.7811Z" fill="#AFFFBC"/>
<path d="M36.7822 63.7027L31.2987 66.7171V65.4759L36.7822 62.2841V63.7027Z" fill="#AFFFBC"/>
<path d="M38.5511 61.2202V62.6388L47.3954 57.4965V56.0779L38.5511 61.2202Z" fill="#AFFFBC"/>
<path d="M55.0016 53.0635L49.1643 56.4325V55.014L55.0016 51.6449V53.0635Z" fill="#AFFFBC"/>
<path d="M69.5063 44.7294L56.7704 51.9996V50.581L69.5063 43.3109V44.7294Z" fill="#AFFFBC"/>
<path d="M84.1879 26.4654L78.1737 21.6778C79.9426 19.3726 81.8884 17.5994 84.1879 16.3582V26.4654Z" fill="#87F684"/>
<path d="M84.1879 26.4654L74.4591 35.1541C73.044 31.6077 74.4591 26.4654 78.1737 21.6778L84.1879 26.4654Z" fill="#AFFFBC"/>
<path d="M84.1879 26.4655V36.5727C79.7657 39.2325 75.8742 38.5232 74.636 35.1542L84.1879 26.4655Z" fill="#C4DEFE"/>
<path d="M84.1879 26.4655L92.3247 27.7067C90.3789 31.6077 87.5487 34.6222 84.1879 36.5727V26.4655Z" fill="#D5BCFF"/>
<path d="M84.1879 26.4654L93.7398 17.7767C94.8011 20.4365 94.2704 23.8056 92.3247 27.7067L84.1879 26.4654Z" fill="#40A31A"/>
<path d="M84.1879 26.4654V16.3582C88.6101 13.6984 92.5016 14.4076 93.7398 17.7767L84.1879 26.4654Z" fill="#55CC2D"/>
<path d="M109.129 11.9252L104.707 23.6283C102.761 23.8056 101.169 23.2737 100.108 21.8551L109.129 11.9252Z" fill="#87F684"/>
<path d="M109.129 11.9252L113.905 18.1314C110.898 21.5005 107.714 23.451 104.707 23.8056L109.129 11.9252Z" fill="#AFFFBC"/>
<path d="M109.129 11.9251L100.285 22.0323C97.6313 18.6632 99.4002 11.3931 104.353 5.89618C109.129 0.221927 115.32 -1.37396 117.973 1.99513C119.035 3.41369 119.388 5.1869 119.035 7.49206L109.129 11.9251Z" fill="#55CC2D"/>
<path d="M109.129 11.9252L119.211 7.49219C118.858 11.0386 116.912 14.7623 114.082 18.1314L109.129 11.9252Z" fill="#C4DEFE"/>
<defs>
<linearGradient id="paint0_linear_130_1062" x1="48.7626" y1="68.0729" x2="70.3121" y2="105.307" gradientUnits="userSpaceOnUse">
<stop stop-color="#568EFF"/>
<stop offset="1" stop-color="#4BFF3D"/>
</linearGradient>
<linearGradient id="paint1_linear_130_1062" x1="57.3821" y1="80.7778" x2="74.8225" y2="110.912" gradientUnits="userSpaceOnUse">
<stop stop-color="#568EFF"/>
<stop offset="1" stop-color="#4BFF3D"/>
</linearGradient>
<linearGradient id="paint2_linear_130_1062" x1="67.5271" y1="91.8128" x2="81.6896" y2="116.283" gradientUnits="userSpaceOnUse">
<stop stop-color="#568EFF"/>
<stop offset="1" stop-color="#4BFF3D"/>
</linearGradient>
<linearGradient id="paint3_linear_130_1062" x1="76.9063" y1="107.227" x2="85.7986" y2="122.591" gradientUnits="userSpaceOnUse">
<stop stop-color="#568EFF"/>
<stop offset="1" stop-color="#4BFF3D"/>
</linearGradient>
<linearGradient id="paint4_linear_130_1062" x1="88.8016" y1="123.075" x2="91.9961" y2="128.594" gradientUnits="userSpaceOnUse">
<stop stop-color="#568EFF"/>
<stop offset="1" stop-color="#4BFF3D"/>
</linearGradient>
</defs>
</svg>
