<svg width="357" height="358" viewBox="0 0 357 358" fill="none" xmlns="http://www.w3.org/2000/svg">
<path d="M264.609 132.022C256.211 107.312 242.322 91.1333 226.425 84.3943L212.868 79.7081C228.621 86.5902 242.367 102.912 250.74 127.31C268.706 179.615 255.616 249.799 221.42 283.995C204.823 300.592 186.333 305.568 169.656 300.624L178.742 303.7C196.587 311.53 216.975 307.021 235.146 288.85C269.485 254.51 282.744 184.495 264.609 132.022Z" fill="url(#paint0_linear_130_984)"/>
<path d="M250.883 127.166C232.917 74.8614 190.634 60.0498 156.438 94.2462C122.242 128.443 109.152 198.627 127.118 250.932C145.083 303.237 187.367 318.048 221.563 283.852C255.759 249.655 268.849 179.471 250.883 127.166Z" fill="url(#paint1_linear_130_984)"/>
<path d="M252.326 127.751C243.148 101.117 227.816 84.3546 210.464 78.7344C227.244 84.9269 242.095 101.495 250.909 127.479C268.874 179.784 255.785 249.967 221.589 284.164C204.705 301.047 185.904 305.997 169.175 300.429C186.436 306.816 205.862 301.918 223.032 284.748C257.202 250.24 270.291 180.056 252.326 127.751Z" fill="white"/>
<path d="M221.563 283.852C187.367 318.048 145.083 303.237 127.118 250.932C109.152 198.627 122.242 128.443 156.438 94.2462C190.634 60.0498 232.917 74.8614 250.883 127.166C268.849 179.471 255.759 249.655 221.563 283.852Z" fill="url(#paint2_linear_130_984)"/>
<path d="M169.752 293.982C204.674 305.773 241.585 268.408 252.194 210.525C262.804 152.643 243.095 96.162 208.173 84.3716C173.251 72.5812 136.34 109.946 125.73 167.829C115.121 225.711 134.83 282.192 169.752 293.982Z" fill="white"/>
<path d="M172.507 278.951C202.372 289.033 233.949 257.014 243.037 207.434C252.125 157.853 235.282 109.486 205.418 99.4035C175.553 89.3207 143.976 121.34 134.888 170.92C125.8 220.501 142.643 268.868 172.507 278.951Z" fill="#AFE5C1"/>
<path d="M175.607 262.04C199.811 270.212 225.413 244.215 232.789 203.974C240.165 163.733 226.523 124.486 202.318 116.314C178.113 108.143 152.512 134.14 145.136 174.38C137.76 214.621 151.402 253.868 175.607 262.04Z" fill="white"/>
<path d="M178.553 245.964C197.46 252.347 217.446 232.097 223.195 200.735C228.944 169.372 218.277 138.773 199.371 132.39C180.465 126.007 160.479 146.257 154.73 177.62C148.981 208.982 159.647 239.581 178.553 245.964Z" fill="#AFE5C1"/>
<path d="M181.346 230.724C195.195 235.399 209.831 220.588 214.037 197.643C218.242 174.698 210.426 152.307 196.577 147.631C182.729 142.956 168.093 157.766 163.887 180.712C159.681 203.657 167.498 226.048 181.346 230.724Z" fill="white"/>
<path d="M131.995 248.082C115.029 198.493 127.349 132.119 159.685 99.7827C175.138 84.3299 192.236 79.3938 207.952 83.9488C192.042 78.9129 174.15 83.6284 158.268 99.5104C125.932 131.847 113.612 198.221 130.409 247.641C139.366 273.481 154.503 289.763 171.635 294.59C155.075 289.191 140.588 273.272 131.995 248.082Z" fill="#AFE5C1"/>
<path d="M149.88 230.197C138.041 195.751 146.788 149.842 169.109 127.521C179.84 116.79 191.79 113.287 202.604 116.661C191.426 112.637 178.996 115.945 167.692 127.249C145.203 149.401 136.767 195.336 148.437 229.612C154.564 247.472 164.945 258.712 176.839 262.021C165.687 258.309 155.786 247.263 149.88 230.197Z" fill="#CEF4DA"/>
<path d="M167.336 212.741C160.599 193.127 165.553 166.889 178.287 154.155C184.296 148.145 190.953 146.218 196.959 147.645C190.564 145.256 183.283 147.132 176.844 153.57C163.967 166.448 159.013 192.686 165.75 212.3C169.411 222.828 175.517 229.222 182.485 231.038C176.259 228.818 170.633 222.62 167.336 212.741Z" fill="#CEF4DA"/>
<path d="M195.835 208.904C188.681 216.058 179.907 213.008 176.052 201.998C172.365 191.158 175.012 176.348 182.166 169.194C189.32 162.04 198.094 165.091 201.949 176.1C205.805 187.11 202.989 201.75 195.835 208.904Z" fill="url(#paint3_linear_130_984)"/>
<path opacity="0.5" d="M190.306 190.784C189.734 191.356 188.941 191.136 188.72 190.343C188.331 189.381 188.539 188.159 189.112 187.586C189.684 187.014 190.477 187.235 190.698 188.028C190.944 189.133 190.878 190.212 190.306 190.784Z" fill="url(#paint4_linear_130_984)"/>
<path d="M201.949 176.1C200.145 171.148 197.39 167.821 194.479 166.341C197.104 168.108 199.521 171.096 200.962 175.399C204.648 186.239 202.001 201.048 194.847 208.203C190.984 212.066 186.407 212.926 182.703 211.225C186.797 213.888 191.542 213.196 195.835 208.904C202.989 201.75 205.805 187.11 201.949 176.1Z" fill="#6DA2F3"/>
<path d="M46.416 140.755L40.3488 132.971C36.8929 128.656 41.1337 123.74 45.7084 126.598L93.7429 156.604L46.416 140.755Z" fill="url(#paint5_linear_130_984)"/>
<path d="M47.326 140.52L41.2587 132.736C39.18 130.085 40.0266 127.212 42.2503 126.001C39.5198 126.705 38.244 130.008 40.5175 133.14L46.5847 140.924L93.7685 156.916L91.65 155.656L47.326 140.52Z" fill="#4EF76B"/>
<path opacity="0.7" d="M40.804 132.853L47.0143 140.494L92.2744 155.708L91.6246 155.344L47.3263 140.52L41.2591 132.736C39.1804 130.085 40.0269 127.212 42.2507 126.001C42.2507 126.001 42.1076 126.144 41.9387 125.975C39.7149 127.186 38.7253 130.202 40.804 132.853Z" fill="#6DF3DF"/>
<path d="M192.633 190.822C192.49 190.965 192.49 190.965 192.178 190.939C192.178 190.939 188.784 192.982 176.02 188.517C157.848 182.364 166.401 184.621 166.401 184.621C165.921 184.427 166.376 184.309 166.155 183.516C165.571 182.074 166.014 179.941 166.872 179.083C167.302 178.654 166.795 178.147 167.276 178.342C167.276 178.342 158.931 174.862 177.103 181.015C189.867 185.48 192.192 189.236 192.192 189.236C192.192 189.236 192.361 189.405 192.53 189.574C193.037 190.081 192.92 190.536 192.633 190.822Z" fill="#AFE5C1"/>
<path d="M168.586 184.802C167.441 185.947 166.167 185.531 165.557 183.777C164.947 182.022 165.39 179.89 166.535 178.745C167.679 177.6 168.953 178.016 169.563 179.77C170.004 181.356 169.73 183.657 168.586 184.802Z" fill="#CEF4DA"/>
<path d="M168.079 184.295C167.507 184.868 167.052 184.985 166.571 184.79L40.9552 142.162C40.4742 141.967 40.9293 141.85 40.7087 141.057C40.2675 139.471 40.5676 137.482 41.7122 136.337C42.2846 135.765 41.7778 135.258 42.2587 135.453L168.043 178.25C168.524 178.445 169.031 178.952 169.251 179.745C169.524 181.162 169.08 183.294 168.079 184.295Z" fill="url(#paint6_linear_130_984)"/>
<path d="M42.4632 141.667C41.4617 142.668 40.1878 142.253 39.6035 140.81C39.1623 139.225 39.4624 137.235 40.607 136.091C41.6086 135.089 42.8825 135.504 43.4667 136.947C43.739 138.364 43.4648 140.665 42.4632 141.667Z" fill="#1CAC9B"/>
<path d="M47.3797 137.426L95.3822 153.951L71.9302 127.065C63.1861 116.89 48.1167 120.135 47.5903 132.486L47.3797 137.426Z" fill="#4EF76B"/>
<path d="M48.0296 137.79L96.0322 154.315L72.5801 127.429C63.8361 117.254 48.7667 120.499 48.2402 132.85L48.0296 137.79Z" fill="url(#paint7_linear_130_984)"/>
<path opacity="0.7" d="M48.6039 133.499C49.1562 121.461 64.0567 118.047 72.9438 128.078L95.7202 154.289L96.0322 154.315L72.5801 127.429C63.8361 117.254 48.7667 120.499 48.2402 132.85L47.8866 137.933L48.1985 137.959L48.6039 133.499Z" fill="#6DF3DF"/>
<path d="M46.4279 142.77L44.8401 146.047C40.5974 154.682 49.276 165.936 59.0791 164.579L94.1443 159.581L46.4279 142.77Z" fill="#4EF76B"/>
<path d="M47.0518 142.822L45.464 146.099C41.2213 154.733 49.8999 165.987 59.703 164.63L94.7682 159.633L47.0518 142.822Z" fill="url(#paint8_linear_130_984)"/>
<path opacity="0.7" d="M60.6132 164.396C50.81 165.753 41.9626 154.33 46.3742 145.864L47.7017 143.185L47.0518 142.822L45.464 146.099C41.2213 154.733 49.8999 165.987 59.703 164.63L94.7682 159.633L60.6132 164.396Z" fill="#6DF3DF"/>
<defs>
<linearGradient id="paint0_linear_130_984" x1="214.086" y1="311.311" x2="272.143" y2="97.1968" gradientUnits="userSpaceOnUse">
<stop offset="0.0909091" stop-color="#41EC40"/>
<stop offset="0.5" stop-color="#48D638"/>
<stop offset="0.683" stop-color="#77E94D"/>
<stop offset="0.798" stop-color="#8FF358"/>
<stop offset="1" stop-color="#53F538"/>
</linearGradient>
<linearGradient id="paint1_linear_130_984" x1="156.518" y1="94.3248" x2="283.823" y2="221.63" gradientUnits="userSpaceOnUse">
<stop stop-color="#1B5861"/>
<stop offset="0.3017" stop-color="#09354C"/>
<stop offset="0.4949" stop-color="#002441"/>
<stop offset="1" stop-color="#00121F"/>
</linearGradient>
<linearGradient id="paint2_linear_130_984" x1="258.282" y1="197.239" x2="110.313" y2="204.34" gradientUnits="userSpaceOnUse">
<stop stop-color="#64C700"/>
<stop offset="0.3959" stop-color="#56E646"/>
<stop offset="0.6313" stop-color="#4EF76B"/>
<stop offset="0.6809" stop-color="#50F174"/>
<stop offset="0.7615" stop-color="#56E28C"/>
<stop offset="0.863" stop-color="#5ECAB3"/>
<stop offset="0.9804" stop-color="#6BA8E9"/>
<stop offset="1" stop-color="#6DA2F3"/>
</linearGradient>
<linearGradient id="paint3_linear_130_984" x1="132.134" y1="190.202" x2="200.516" y2="177.677" gradientUnits="userSpaceOnUse">
<stop offset="0.00505051" stop-color="#6DF3DF"/>
<stop offset="0.1401" stop-color="#6DD1E7"/>
<stop offset="0.2746" stop-color="#6DB7EE"/>
<stop offset="0.3951" stop-color="#6DA8F2"/>
<stop offset="0.4899" stop-color="#6DA2F3"/>
<stop offset="1" stop-color="#746DF3"/>
</linearGradient>
<linearGradient id="paint4_linear_130_984" x1="188.623" y1="188.179" x2="190.714" y2="190.27" gradientUnits="userSpaceOnUse">
<stop stop-color="#1B5861"/>
<stop offset="0.3017" stop-color="#09354C"/>
<stop offset="0.4949" stop-color="#002441"/>
<stop offset="1" stop-color="#00121F"/>
</linearGradient>
<linearGradient id="paint5_linear_130_984" x1="44.2772" y1="122.961" x2="85.8891" y2="164.573" gradientUnits="userSpaceOnUse">
<stop offset="0.00505051" stop-color="#64C700"/>
<stop offset="0.399" stop-color="#4EF76B"/>
<stop offset="0.4961" stop-color="#52ED7A"/>
<stop offset="0.6842" stop-color="#5BD4A3"/>
<stop offset="0.9424" stop-color="#69ACE4"/>
<stop offset="1" stop-color="#6DA2F3"/>
</linearGradient>
<linearGradient id="paint6_linear_130_984" x1="105.507" y1="156.716" x2="103.234" y2="163.316" gradientUnits="userSpaceOnUse">
<stop offset="0.00505051" stop-color="#169835"/>
<stop offset="0.0869517" stop-color="#179B45"/>
<stop offset="0.2456" stop-color="#19A36E"/>
<stop offset="0.399" stop-color="#1CAC9B"/>
<stop offset="0.5662" stop-color="#158890"/>
<stop offset="0.9357" stop-color="#032E75"/>
<stop offset="1" stop-color="#001E70"/>
</linearGradient>
<linearGradient id="paint7_linear_130_984" x1="54.3785" y1="129.195" x2="157.675" y2="156.594" gradientUnits="userSpaceOnUse">
<stop offset="0.00505051" stop-color="#64C700"/>
<stop offset="0.399" stop-color="#4EF76B"/>
<stop offset="0.4961" stop-color="#52ED7A"/>
<stop offset="0.6842" stop-color="#5BD4A3"/>
<stop offset="0.9424" stop-color="#69ACE4"/>
<stop offset="1" stop-color="#6DA2F3"/>
</linearGradient>
<linearGradient id="paint8_linear_130_984" x1="48.8661" y1="153.823" x2="129.678" y2="140.432" gradientUnits="userSpaceOnUse">
<stop offset="0.00505051" stop-color="#64C700"/>
<stop offset="0.399" stop-color="#4EF76B"/>
<stop offset="0.4961" stop-color="#52ED7A"/>
<stop offset="0.6842" stop-color="#5BD4A3"/>
<stop offset="0.9424" stop-color="#69ACE4"/>
<stop offset="1" stop-color="#6DA2F3"/>
</linearGradient>
</defs>
</svg>
